<svg width="306" height="288" viewBox="0 0 306 288" fill="none" xmlns="http://www.w3.org/2000/svg">
<path fill-rule="evenodd" clip-rule="evenodd" d="M160.205 0.714737C160.858 0.596069 161.434 0.491547 161.918 0.401672L182.713 5.87007L183.482 2.94518C196.037 5.42674 207.9 9.42091 218.926 14.7151L218.578 15.3837L236.315 24.6238L236.331 24.5931C245.852 30.8958 254.551 38.2582 262.303 46.5C278.711 60.1025 283.386 71.6065 289.042 85.523L289.042 85.5237C289.831 87.4648 290.639 89.4528 291.5 91.5C292.588 99.1145 295.474 106.499 298.388 113.954C302.171 123.632 306 133.428 306 144C306 171 294 198.5 278 216.5C273.286 221.043 269.525 225.841 265.813 230.578C258.084 240.44 250.565 250.034 235.084 256.5C202.5 279.639 187.427 288 153 288C143.157 285.646 134.871 283.68 128 283.619C126.966 282.848 126.229 283.157 125.502 283.462C125.174 283.6 124.849 283.736 124.5 283.772C116.576 283.051 109.493 282.327 101.5 279.639C80.4996 272.575 61.6194 261.314 46 246.929C31 246.929 10.5905 203.744 3.91283 176.5C7.34328 181.008 5.66455 173.663 3.54575 164.392L3.5457 164.392C1.90482 157.212 0 148.878 0 144C0 105.557 16.006 70.632 42.088 44.8069L47 42H50.5L47.6545 53.7884C47.2191 55.5922 46.952 57.4326 46.8566 59.2858L45.6751 82.2462C45.6224 83.2699 46.9605 83.7006 47.5149 82.8385L59.4257 64.3157C59.4257 64.3157 75.8494 35.5 78.3494 32C80.8494 28.5 101.5 13.8526 101.5 13.8526C101.5 13.8526 114.5 7 128 9C136.805 4.96417 153.099 2.0052 160.199 0.71579L160.205 0.714737ZM143.762 61.7639L146.122 62.9436C148.049 63.9074 149.774 65.2828 150.366 67.3552C150.958 69.4313 150.585 72.0987 148.601 75.0393C145.401 74.3104 143.353 71.1796 143.966 67.9558L144.048 67.5253C144.268 65.7152 144.194 63.8816 143.83 62.095L143.762 61.7639ZM189.232 74.6813L189.186 72.6492L188.985 72.8144C187.899 73.7056 186.676 74.4158 185.364 74.9174L185.041 75.0166C182.624 75.759 181.228 78.2816 181.883 80.724C184.6 81.0173 186.552 80.3118 187.753 79.1609C188.953 78.0121 189.269 76.3415 189.232 74.6813ZM148.586 87.9336L151.632 76.7878L145.965 86.6287C142.07 93.4267 144.385 102.094 151.151 106.044C155.841 108.781 158.57 113.942 158.191 119.359L158.063 121.198C157.896 123.591 157.232 125.922 156.112 128.043L146.841 145.43L128.869 155.085H173.037L163.423 144.155L168.144 125.478C168.723 123.177 168.82 120.781 168.429 118.44L168.125 116.623C167.232 111.279 163.386 106.903 158.201 105.332C150.813 103.093 146.551 95.3798 148.586 87.9336ZM120.631 124.214L121.318 118.693C121.879 114.182 123.401 109.784 127.106 107.151C130.817 104.513 136.384 103.379 143.627 105.257C144.427 112.132 139.642 118.407 132.801 119.454L131.887 119.594C128.133 120.43 124.539 121.866 121.242 123.847L120.631 124.214ZM195 106.885L192.848 108.48C190.787 110.009 188.429 111.135 185.876 110.879C183.316 110.622 180.533 109.23 178.164 106.224C180.48 103.412 184.475 102.657 187.657 104.43L188.502 104.9C190.408 105.815 192.434 106.456 194.52 106.804L195 106.885ZM179.347 93.3545L180.258 89.5296L179.8 89.7401C177.331 90.876 174.695 91.606 171.993 91.9021L171.341 91.9295C166.454 92.1349 162.606 96.172 162.636 101.063C167.578 102.943 171.576 102.579 174.387 101.013C177.194 99.4509 178.604 96.4796 179.347 93.3545ZM127.315 65.0164L124.268 64.8862L124.496 65.2037C125.724 66.9168 126.668 68.8169 127.291 70.8308L127.408 71.3238C128.284 75.0154 131.925 77.3513 135.645 76.6089C136.35 72.5685 135.484 69.5774 133.878 67.6666C132.275 65.7591 129.804 65.1228 127.315 65.0164ZM172.462 64.7128L173.683 70.1407C174.68 74.5755 174.736 79.229 172.139 82.9603C169.539 86.6981 164.683 89.6472 157.233 90.3301C154.154 84.131 156.535 76.6072 162.619 73.3075L163.432 72.8668C166.682 70.8108 169.579 68.2438 172.011 65.2649L172.462 64.7128ZM114.382 86.4338L110 89.8615L110.692 90.0325C114.425 90.9548 117.986 92.4736 121.235 94.5302L121.982 95.0758C127.569 99.1612 135.387 98.0909 139.671 92.6543C135.863 86.2136 131.119 83.0886 126.628 82.3389C122.144 81.5906 117.963 83.6333 114.382 86.4338ZM52.6094 204.031C52.6094 203.844 52.5938 203.672 52.5625 203.516C52.5625 203.328 52.5469 203.203 52.5156 203.141C52.7344 202.953 52.8125 202.844 52.75 202.812C52.6875 202.781 52.6406 202.688 52.6094 202.531C52.6719 202.438 52.7188 202.359 52.75 202.297C52.8125 202.234 52.8438 202.156 52.8438 202.062C52.8438 201.969 52.7969 201.891 52.7031 201.828C52.6406 201.734 52.6094 201.641 52.6094 201.547C52.8594 200.984 52.9375 200.5 52.8438 200.094C52.7812 199.688 52.75 199.188 52.75 198.594L52.8906 198.312L53.0781 198.031C52.8906 197.938 52.8125 197.875 52.8438 197.844C52.9062 197.781 52.9062 197.641 52.8438 197.422C52.8125 197.172 52.8438 196.953 52.9375 196.766C53.0312 196.547 53.1094 196.312 53.1719 196.062C53.2344 195.75 53.25 195.453 53.2188 195.172C53.2188 194.859 53.2344 194.531 53.2656 194.188C53.5781 194.031 53.6875 193.781 53.5938 193.438C53.8438 193.344 54.0469 193.219 54.2031 193.062C54.3594 192.875 54.5469 192.719 54.7656 192.594C54.7031 192.406 54.7031 192.266 54.7656 192.172C54.8594 192.078 54.8906 191.953 54.8594 191.797C55.0469 191.641 55.2188 191.484 55.375 191.328C55.5625 191.172 55.7344 191.016 55.8906 190.859C55.8594 190.641 55.8906 190.5 55.9844 190.438C56.1094 190.344 56.1562 190.188 56.125 189.969C56.375 189.875 56.5469 189.734 56.6406 189.547C56.7344 189.359 56.9375 189.25 57.25 189.219C57.375 188.812 57.5312 188.469 57.7188 188.188C57.9375 187.875 58.25 187.641 58.6562 187.484C58.6562 187.234 58.7031 187.078 58.7969 187.016C58.8906 186.984 58.9844 186.969 59.0781 186.969H59.4062C59.5 186.969 59.5938 186.984 59.6875 187.016H60.0156C60.1406 187.016 60.25 187 60.3438 186.969C60.4688 186.906 60.6094 186.875 60.7656 186.875C60.9844 186.875 61.1875 186.953 61.375 187.109C61.5625 187.234 61.7812 187.297 62.0312 187.297C62.375 187.297 62.6875 187.266 62.9688 187.203C63.2812 187.109 63.6094 187.078 63.9531 187.109C64.1094 187.297 64.3125 187.422 64.5625 187.484C64.8438 187.547 65.0625 187.656 65.2188 187.812C65.375 187.812 65.4844 187.797 65.5469 187.766C65.6406 187.703 65.7188 187.672 65.7812 187.672C65.9375 187.828 66.125 187.922 66.3438 187.953C66.5938 187.984 66.8281 188.031 67.0469 188.094C67.2969 188.281 67.5625 188.422 67.8438 188.516C68.125 188.578 68.4062 188.672 68.6875 188.797C68.75 188.922 68.8438 189.031 68.9688 189.125C69.0938 189.188 69.1875 189.297 69.25 189.453C69.5 189.391 69.6562 189.406 69.7188 189.5C69.8125 189.594 69.9688 189.641 70.1875 189.641C70.25 189.797 70.4062 189.969 70.6562 190.156C70.6562 190.25 70.6719 190.328 70.7031 190.391C70.7656 190.422 70.8125 190.547 70.8438 190.766C71.1562 190.953 71.4219 191.188 71.6406 191.469C71.8594 191.75 72.1406 191.969 72.4844 192.125C72.5469 192.375 72.6875 192.562 72.9062 192.688C73.1562 192.812 73.4062 192.906 73.6562 192.969C73.9062 192.812 74.125 192.719 74.3125 192.688C74.5 192.656 74.7344 192.672 75.0156 192.734C75.1406 192.672 75.2188 192.609 75.25 192.547C75.2812 192.484 75.3438 192.422 75.4375 192.359C75.7812 192.359 75.9844 192.281 76.0469 192.125C76.1094 191.969 76.2344 191.812 76.4219 191.656C76.2969 191.312 76.2812 191.047 76.375 190.859C76.5 190.641 76.5938 190.359 76.6562 190.016C76.5 189.953 76.3594 189.906 76.2344 189.875C76.1406 189.844 76.0312 189.812 75.9062 189.781C75.875 189.438 75.75 189.234 75.5312 189.172C75.3125 189.078 75.1562 188.922 75.0625 188.703C75.125 188.484 75.0781 188.359 74.9219 188.328C74.7969 188.297 74.7656 188.188 74.8281 188C74.4844 187.938 74.2344 187.812 74.0781 187.625C73.9219 187.438 73.8125 187.172 73.75 186.828C73.4688 186.859 73.2656 186.828 73.1406 186.734C73.0156 186.641 72.9062 186.547 72.8125 186.453C72.7188 186.328 72.6094 186.219 72.4844 186.125C72.3906 186.031 72.2188 186 71.9688 186.031C71.9688 185.875 71.9062 185.703 71.7812 185.516C71.6875 185.547 71.5312 185.531 71.3125 185.469C71.125 185.406 70.9219 185.328 70.7031 185.234C70.4844 185.141 70.2812 185.047 70.0938 184.953C69.9375 184.828 69.8125 184.734 69.7188 184.672C69.625 184.609 69.5312 184.531 69.4375 184.438C69.375 184.312 69.2812 184.219 69.1562 184.156C69.0312 184.094 68.9219 184.078 68.8281 184.109C68.7656 184.109 68.5312 184.016 68.125 183.828C68 183.891 67.9062 183.969 67.8438 184.062C67.8125 184.125 67.7188 184.156 67.5625 184.156C67.3125 184.031 67.0938 183.984 66.9062 184.016C66.7188 184.016 66.5156 184.047 66.2969 184.109C66.0781 183.891 65.8125 183.75 65.5 183.688C65.2188 183.625 64.9531 183.547 64.7031 183.453C64.5469 183.453 64.4375 183.484 64.375 183.547C64.3125 183.609 64.2031 183.672 64.0469 183.734C63.8906 183.578 63.6875 183.5 63.4375 183.5C63.2188 183.469 62.9688 183.469 62.6875 183.5C62.4375 183.531 62.1719 183.547 61.8906 183.547C61.6094 183.547 61.375 183.5 61.1875 183.406C60.9688 183.531 60.75 183.594 60.5312 183.594C60.3125 183.594 60.0938 183.578 59.875 183.547C59.6875 183.484 59.4844 183.453 59.2656 183.453C58.9219 183.453 58.625 183.531 58.375 183.688C58.125 183.812 57.8125 183.828 57.4375 183.734C57.1875 183.891 56.9688 184.016 56.7812 184.109C56.625 184.203 56.375 184.25 56.0312 184.25C55.625 184.75 55.0781 185.094 54.3906 185.281V185.516C54.4219 185.609 54.4062 185.688 54.3438 185.75C54.1875 185.75 54.0781 185.797 54.0156 185.891C53.9844 185.953 53.8594 185.969 53.6406 185.938C53.6406 186.094 53.5625 186.281 53.4062 186.5C53.2812 186.688 53.125 186.891 52.9375 187.109C52.7812 187.297 52.6094 187.484 52.4219 187.672C52.2344 187.828 52.0781 187.953 51.9531 188.047C51.9844 188.266 51.9688 188.422 51.9062 188.516C51.8438 188.609 51.7188 188.812 51.5312 189.125C51.5312 189.375 51.4688 189.578 51.3438 189.734C51.25 189.859 51.2031 190.047 51.2031 190.297C50.9219 190.391 50.7188 190.562 50.5938 190.812C50.4688 191.031 50.3906 191.281 50.3594 191.562C50.1406 191.719 49.9688 191.875 49.8438 192.031C49.75 192.156 49.5625 192.266 49.2812 192.359C49.3438 192.734 49.3125 192.984 49.1875 193.109C49.0938 193.203 49 193.406 48.9062 193.719C49 194.188 48.9219 194.656 48.6719 195.125C48.4531 195.594 48.3438 196.188 48.3438 196.906C48.2188 197 48.125 197.062 48.0625 197.094C48.0312 197.125 48.0312 197.234 48.0625 197.422C48.2812 197.516 48.4062 197.641 48.4375 197.797C48.4688 197.953 48.4688 198.125 48.4375 198.312C48.4062 198.469 48.3594 198.641 48.2969 198.828C48.2656 198.984 48.3281 199.219 48.4844 199.531C48.2969 199.969 48.2031 200.438 48.2031 200.938C48.2031 201.406 48.2188 201.984 48.25 202.672C48.25 202.828 48.2031 203.031 48.1094 203.281C48.0469 203.5 47.9844 203.688 47.9219 203.844C48.1094 204.156 48.2031 204.453 48.2031 204.734C48.2344 205.016 48.2188 205.328 48.1562 205.672C48.4062 205.922 48.5625 206.219 48.625 206.562C48.7188 206.906 48.7656 207.25 48.7656 207.594C48.8594 207.656 48.9531 207.797 49.0469 208.016C49.1719 208.234 49.2344 208.391 49.2344 208.484C49.1719 208.609 49.125 208.688 49.0938 208.719C49.0625 208.75 49.0625 208.844 49.0938 209C49.2812 208.969 49.375 208.984 49.375 209.047L49.5156 209.328C49.5469 209.578 49.6094 209.828 49.7031 210.078C49.8281 210.297 49.9375 210.516 50.0312 210.734C50.125 210.953 50.1875 211.188 50.2188 211.438C50.2812 211.656 50.2812 211.906 50.2188 212.188C50.4062 212.25 50.5156 212.312 50.5469 212.375C50.6094 212.406 50.6094 212.5 50.5469 212.656C50.6094 212.719 50.6875 212.766 50.7812 212.797C50.875 212.797 50.9531 212.828 51.0156 212.891C51.0156 213.172 51.1094 213.406 51.2969 213.594C51.4844 213.75 51.6094 213.953 51.6719 214.203L51.9531 214.344C52.0781 214.375 52.1719 214.422 52.2344 214.484C52.2969 214.547 52.3281 214.609 52.3281 214.672C52.3281 214.703 52.4375 214.75 52.6562 214.812C52.7188 214.969 52.7969 215.109 52.8906 215.234C53.0156 215.359 53.1094 215.5 53.1719 215.656C53.3906 215.625 53.5469 215.641 53.6406 215.703C53.7656 215.734 53.8594 215.797 53.9219 215.891C53.9844 215.953 54.0469 216.031 54.1094 216.125C54.2031 216.188 54.3281 216.25 54.4844 216.312C54.5781 216.312 54.7812 216.422 55.0938 216.641C55.3438 216.984 55.6406 217.203 55.9844 217.297C56.3594 217.391 56.75 217.469 57.1562 217.531C57.1875 217.656 57.25 217.75 57.3438 217.812C57.4688 217.844 57.5781 217.875 57.6719 217.906C57.7969 217.938 57.8906 217.984 57.9531 218.047C58.0469 218.109 58.0938 218.219 58.0938 218.375C58.375 218.375 58.6406 218.422 58.8906 218.516C59.1406 218.609 59.3438 218.797 59.5 219.078C60.0312 219.047 60.5469 219.016 61.0469 218.984C61.5781 218.953 62.0938 219.062 62.5938 219.312C62.75 219.062 62.9375 218.969 63.1562 219.031C63.4062 219.125 63.6562 219.125 63.9062 219.031C64.0312 218.906 64.2344 218.891 64.5156 218.984C64.6406 218.984 64.7188 218.969 64.75 218.938C64.8125 218.906 64.8594 218.891 64.8906 218.891C64.9219 218.891 64.9688 218.906 65.0312 218.938C65.0938 218.969 65.2656 219 65.5469 219.031C65.6406 219.25 65.7812 219.359 65.9688 219.359C66.1562 219.203 66.3594 219.094 66.5781 219.031C66.7969 219 67.0156 218.938 67.2344 218.844C67.6094 218.688 68 218.453 68.4062 218.141H68.9219C69.1719 217.922 69.4531 217.781 69.7656 217.719L70.7031 217.531C70.7656 217.188 70.9375 216.984 71.2188 216.922C71.5 216.859 71.7656 216.766 72.0156 216.641C72.1406 216.484 72.2188 216.359 72.25 216.266C72.3125 216.172 72.3594 216.109 72.3906 216.078C72.4531 216.047 72.5312 216.031 72.625 216.031H73.1406C73.1719 215.719 73.2812 215.5 73.4688 215.375C73.6875 215.25 73.9219 215.156 74.1719 215.094V214.578C74.2656 214.516 74.3281 214.469 74.3594 214.438C74.3906 214.406 74.5781 214.359 74.9219 214.297C74.9844 214.078 75.1094 213.891 75.2969 213.734C75.4844 213.578 75.5781 213.391 75.5781 213.172C75.7031 213.109 75.8125 213.062 75.9062 213.031C76.0312 212.969 76.125 212.859 76.1875 212.703C76.3125 212.641 76.3594 212.562 76.3281 212.469C76.3281 212.375 76.2969 212.281 76.2344 212.188C76.3906 212.188 76.5 212.141 76.5625 212.047C76.625 211.922 76.6719 211.812 76.7031 211.719C76.7344 211.594 76.7812 211.484 76.8438 211.391C76.9062 211.266 77.0156 211.203 77.1719 211.203C77.2031 210.672 77.2969 210.156 77.4531 209.656C77.6094 209.156 77.6875 208.641 77.6875 208.109C77.9688 207.859 78.1875 207.547 78.3438 207.172C78.2812 206.953 78.2031 206.766 78.1094 206.609C78.0156 206.422 77.9375 206.234 77.875 206.047C78 205.547 77.9844 205.094 77.8281 204.688C77.6719 204.281 77.5156 203.859 77.3594 203.422C77.4219 203.297 77.4688 203.188 77.5 203.094L77.6875 202.719C77.5938 202.562 77.5312 202.422 77.5 202.297C77.5 202.141 77.4844 201.984 77.4531 201.828C77.2031 201.734 77.0156 201.609 76.8906 201.453C76.7969 201.297 76.6562 201.141 76.4688 200.984C76.0938 200.922 75.6719 200.891 75.2031 200.891C74.7344 200.859 74.3281 200.922 73.9844 201.078C73.6406 200.891 73.3438 200.891 73.0938 201.078C72.875 201.266 72.6406 201.359 72.3906 201.359C72.1719 201.359 71.9531 201.344 71.7344 201.312C71.5469 201.281 71.3594 201.234 71.1719 201.172C70.9219 201.391 70.6406 201.516 70.3281 201.547C70.0156 201.547 69.6719 201.516 69.2969 201.453C68.9531 201.391 68.6094 201.312 68.2656 201.219C67.9219 201.125 67.5938 201.078 67.2812 201.078C67.1562 201.078 67.0312 201.109 66.9062 201.172C66.8125 201.203 66.7031 201.234 66.5781 201.266H66.0625C65.9375 201.328 65.7031 201.359 65.3594 201.359C65.0156 201.328 64.7656 201.297 64.6094 201.266C64.5156 201.328 64.4062 201.391 64.2812 201.453C64.1562 201.484 64.0312 201.531 63.9062 201.594C63.625 201.5 63.3281 201.531 63.0156 201.688C62.7344 201.812 62.4375 201.875 62.125 201.875C61.9375 201.875 61.75 201.859 61.5625 201.828C61.375 201.797 61.1875 201.781 61 201.781C60.8438 201.938 60.6406 202.047 60.3906 202.109C60.1719 202.172 60.0156 202.328 59.9219 202.578C59.7656 202.578 59.6562 202.609 59.5938 202.672C59.5625 202.734 59.4844 202.781 59.3594 202.812C59.3594 203.312 59.4219 203.719 59.5469 204.031C59.7031 204.344 59.8594 204.719 60.0156 205.156C60.2656 205.188 60.5 205.266 60.7188 205.391C60.9688 205.484 61.2188 205.531 61.4688 205.531C61.625 205.531 61.7656 205.516 61.8906 205.484C62.0156 205.453 62.1406 205.438 62.2656 205.438C62.4844 205.438 62.6875 205.469 62.875 205.531L63.4375 205.719C63.4062 205.5 63.4062 205.391 63.4375 205.391C63.5 205.391 63.6094 205.344 63.7656 205.25C64.1094 205.188 64.4688 205.125 64.8438 205.062C65.2188 205 65.5625 205.062 65.875 205.25C66.125 205.25 66.2812 205.203 66.3438 205.109C66.4375 204.984 66.5625 204.906 66.7188 204.875C66.9688 205.031 67.2344 205.094 67.5156 205.062C67.8281 205 68.2344 204.969 68.7344 204.969C69.0156 205.156 69.2344 205.25 69.3906 205.25H70.1406C70.4219 205.406 70.7188 205.5 71.0312 205.531C71.3438 205.531 71.6406 205.609 71.9219 205.766C72.0781 205.703 72.2188 205.672 72.3438 205.672C72.4688 205.641 72.6094 205.641 72.7656 205.672C72.9844 205.891 73.2031 206.234 73.4219 206.703C73.6406 207.141 73.6406 207.531 73.4219 207.875C73.3594 207.938 73.3125 208.016 73.2812 208.109C73.2812 208.172 73.25 208.25 73.1875 208.344C73.25 208.5 73.2344 208.625 73.1406 208.719C73.0781 208.812 73.0625 208.938 73.0938 209.094C72.875 209.219 72.7188 209.359 72.625 209.516C72.5625 209.641 72.4062 209.719 72.1562 209.75V210.453C72.0625 210.547 71.9531 210.703 71.8281 210.922C71.7344 211.141 71.625 211.375 71.5 211.625C71.375 211.844 71.25 212.047 71.125 212.234C71 212.391 70.875 212.469 70.75 212.469L70.3281 212.891C70.1406 212.984 69.9531 213.109 69.7656 213.266C69.5781 213.391 69.375 213.469 69.1562 213.5C69.0625 213.562 68.9844 213.641 68.9219 213.734C68.8906 213.797 68.8281 213.844 68.7344 213.875C68.5156 214 68.3125 214.109 68.125 214.203C67.9375 214.297 67.75 214.422 67.5625 214.578C67.2812 214.609 67.0469 214.672 66.8594 214.766C66.7031 214.828 66.4531 214.797 66.1094 214.672C65.9219 214.828 65.5781 214.984 65.0781 215.141C64.5781 215.266 64.2031 215.312 63.9531 215.281C63.8906 215.281 63.8125 215.266 63.7188 215.234C63.6562 215.203 63.5781 215.188 63.4844 215.188C63.3594 215.188 63.2344 215.234 63.1094 215.328C62.9844 215.391 62.8594 215.422 62.7344 215.422L62.5469 215.328C62.4844 215.297 62.2656 215.328 61.8906 215.422C61.5469 215.422 61.2344 215.328 60.9531 215.141C60.7031 214.953 60.3594 214.938 59.9219 215.094C59.9219 215.062 59.9062 215.047 59.875 215.047C59.875 215.016 59.9062 214.875 59.9688 214.625C59.625 214.562 59.2969 214.484 58.9844 214.391C58.6719 214.297 58.3906 214.125 58.1406 213.875H57.625C57.4062 213.562 57.125 213.406 56.7812 213.406C56.625 213.188 56.4375 213 56.2188 212.844C56.0312 212.656 55.8594 212.469 55.7031 212.281C55.7344 212.031 55.6719 211.844 55.5156 211.719C55.3594 211.594 55.2031 211.453 55.0469 211.297C54.9531 211.141 54.8594 210.969 54.7656 210.781C54.6719 210.594 54.5625 210.422 54.4375 210.266V209.75C54.25 209.5 54.125 209.328 54.0625 209.234C54 209.109 53.875 208.797 53.6875 208.297C53.5625 208.047 53.5 207.844 53.5 207.688C53.5312 207.5 53.4375 207.234 53.2188 206.891C53.1875 206.828 53.1406 206.766 53.0781 206.703C53.0469 206.641 53.0781 206.547 53.1719 206.422C53.1719 206.266 53.1406 206.125 53.0781 206C53.0156 205.844 53.0156 205.688 53.0781 205.531C53.0156 205.406 52.9219 205.297 52.7969 205.203C52.7031 205.109 52.625 205 52.5625 204.875C52.5938 204.844 52.6094 204.75 52.6094 204.594C52.6406 204.406 52.6406 204.219 52.6094 204.031ZM109.047 185.094C109.109 184.969 109.203 184.891 109.328 184.859C109.266 184.672 109.219 184.484 109.188 184.297C109.188 184.109 109.172 183.922 109.141 183.734C108.891 183.703 108.688 183.641 108.531 183.547C108.406 183.422 108.188 183.391 107.875 183.453C107.844 183.297 107.75 183.203 107.594 183.172C107.469 183.141 107.344 183.094 107.219 183.031C106.781 183.281 106.312 183.406 105.812 183.406C105.344 183.375 104.891 183.281 104.453 183.125C104.203 183.281 103.906 183.375 103.562 183.406C103.219 183.406 102.953 183.516 102.766 183.734C102.422 183.734 102.062 183.766 101.688 183.828C101.344 183.891 101 183.922 100.656 183.922C100.5 183.922 100.359 183.891 100.234 183.828C100.141 183.766 100.016 183.734 99.8594 183.734C99.6094 183.734 99.375 183.766 99.1562 183.828C98.9688 183.891 98.6406 183.891 98.1719 183.828H97.3281C97.0469 183.828 96.7656 183.797 96.4844 183.734L96.1094 183.922C96.0156 183.984 95.8906 184.016 95.7344 184.016C95.1406 184.016 94.5312 184 93.9062 183.969C93.2812 183.938 92.6875 184.062 92.125 184.344C91.9062 184.188 91.6719 184.141 91.4219 184.203C91.1719 184.234 90.9219 184.25 90.6719 184.25C90.3281 184.25 90 184.188 89.6875 184.062C89.4062 183.906 89.0781 183.859 88.7031 183.922C88.6094 183.891 88.4688 183.812 88.2812 183.688C88.125 183.562 87.9375 183.453 87.7188 183.359C87.5312 183.266 87.3438 183.203 87.1562 183.172C87 183.109 86.7812 183.094 86.5 183.125C86.4062 183.125 86.2188 183.188 85.9375 183.312C85.6875 183.438 85.5312 183.547 85.4688 183.641C85.4062 183.734 85.3125 183.812 85.1875 183.875C85.0625 183.906 84.9688 183.953 84.9062 184.016C84.8125 184.547 84.75 185.109 84.7188 185.703C84.6875 186.297 84.75 186.859 84.9062 187.391C84.6875 187.609 84.5625 187.844 84.5312 188.094C84.7812 188.562 84.8125 189.062 84.625 189.594C84.4688 190.094 84.3906 190.578 84.3906 191.047C84.3906 191.234 84.4219 191.422 84.4844 191.609C84.5469 191.797 84.5781 191.984 84.5781 192.172C84.5781 192.391 84.5469 192.609 84.4844 192.828C84.4531 193.016 84.4375 193.234 84.4375 193.484C84.4375 193.547 84.4531 193.625 84.4844 193.719C84.5156 193.781 84.5 193.875 84.4375 194C84.4375 194.188 84.4688 194.422 84.5312 194.703C84.5938 194.953 84.6562 195.219 84.7188 195.5C84.7812 195.781 84.7969 196.047 84.7656 196.297C84.7656 196.516 84.6875 196.688 84.5312 196.812C84.6562 197 84.7188 197.219 84.7188 197.469C84.75 197.688 84.75 197.922 84.7188 198.172V198.875C84.7188 199.094 84.7812 199.297 84.9062 199.484C84.7188 199.828 84.6562 200.203 84.7188 200.609C84.7812 200.984 84.7969 201.344 84.7656 201.688C84.5156 201.938 84.3906 202.25 84.3906 202.625C84.3906 202.969 84.2969 203.266 84.1094 203.516C84.2031 203.672 84.2656 203.891 84.2969 204.172C84.3594 204.422 84.3906 204.625 84.3906 204.781C84.3906 204.906 84.3594 205.016 84.2969 205.109C84.2344 205.203 84.25 205.328 84.3438 205.484C84.3438 205.797 84.2969 206.094 84.2031 206.375C84.1406 206.656 84.1094 206.953 84.1094 207.266C84.1094 207.516 84.1562 207.766 84.25 208.016C84.3438 208.266 84.3906 208.516 84.3906 208.766C84.3906 209.016 84.375 209.312 84.3438 209.656C84.3125 210 84.2344 210.266 84.1094 210.453C84.2031 210.453 84.2344 210.625 84.2031 210.969C84.2031 211.094 84.2344 211.203 84.2969 211.297C84.3906 211.359 84.4375 211.438 84.4375 211.531C84.4375 211.75 84.3906 211.953 84.2969 212.141C84.2344 212.297 84.2031 212.469 84.2031 212.656C84.2031 212.969 84.25 213.328 84.3438 213.734C84.4375 214.141 84.3594 214.469 84.1094 214.719C84.3594 214.781 84.4531 214.875 84.3906 215C84.3281 215.125 84.3438 215.266 84.4375 215.422C84.5625 215.578 84.6094 215.703 84.5781 215.797C84.5781 215.859 84.6094 215.969 84.6719 216.125C84.7656 216.312 84.8906 216.484 85.0469 216.641C85.2344 216.766 85.375 216.938 85.4688 217.156C85.5312 217.281 85.5625 217.422 85.5625 217.578C85.5625 217.703 85.5938 217.828 85.6562 217.953C85.7188 218.016 85.7969 218.062 85.8906 218.094C85.9844 218.156 86.0156 218.281 85.9844 218.469C86.2969 218.406 86.5469 218.453 86.7344 218.609C86.9219 218.766 87.1406 218.844 87.3906 218.844C87.8594 218.844 88.2969 218.734 88.7031 218.516C89.1094 218.328 89.6562 218.281 90.3438 218.375C90.5312 218.375 90.7031 218.328 90.8594 218.234C91.0156 218.172 91.1875 218.141 91.375 218.141C91.4688 218.141 91.5625 218.156 91.6562 218.188C91.75 218.219 91.8438 218.234 91.9375 218.234C92.0312 218.234 92.1094 218.203 92.1719 218.141C92.2656 218.078 92.375 218.047 92.5 218.047C92.625 218.047 92.7031 218.078 92.7344 218.141C92.7969 218.203 92.9062 218.203 93.0625 218.141C93.2188 218.016 93.375 217.922 93.5312 217.859C93.7188 217.797 93.8906 217.719 94.0469 217.625C94.2031 217.75 94.4219 217.797 94.7031 217.766C94.9844 217.734 95.2188 217.734 95.4062 217.766C95.625 217.609 95.7656 217.516 95.8281 217.484C95.8906 217.453 95.9375 217.453 95.9688 217.484L96.0625 217.578C96.125 217.609 96.2344 217.625 96.3906 217.625C96.6406 217.469 96.9688 217.422 97.375 217.484C97.8125 217.516 98.1875 217.469 98.5 217.344C98.625 217.375 98.7031 217.438 98.7344 217.531C98.7969 217.625 99.0312 217.641 99.4375 217.578C99.625 217.578 99.8125 217.609 100 217.672C100.188 217.734 100.359 217.797 100.516 217.859C100.734 217.703 100.953 217.656 101.172 217.719C101.391 217.75 101.719 217.719 102.156 217.625C102.344 217.625 102.516 217.641 102.672 217.672C102.859 217.703 103.031 217.719 103.188 217.719C103.719 217.719 104.219 217.656 104.688 217.531C105.188 217.375 105.656 217.172 106.094 216.922C106.25 216.984 106.469 216.984 106.75 216.922C107.031 216.859 107.297 216.781 107.547 216.688C107.797 216.594 108.016 216.484 108.203 216.359C108.391 216.203 108.469 216.062 108.438 215.938C108.469 215.812 108.469 215.734 108.438 215.703C108.406 215.672 108.344 215.641 108.25 215.609C108.188 215.578 108.125 215.562 108.062 215.562C108.031 215.531 108.016 215.484 108.016 215.422C108.203 215.172 108.281 214.938 108.25 214.719C108.125 214.562 107.984 214.438 107.828 214.344L107.359 213.969V213.5C107.016 213.312 106.672 213.234 106.328 213.266C105.984 213.266 105.656 213.297 105.344 213.359C105.031 213.422 104.719 213.469 104.406 213.5C104.125 213.5 103.875 213.422 103.656 213.266C103.406 213.328 103.172 213.438 102.953 213.594C102.766 213.719 102.547 213.812 102.297 213.875C101.859 213.969 101.422 214 100.984 213.969C100.578 213.906 100.156 213.953 99.7188 214.109C99.625 214.078 99.5156 214.047 99.3906 214.016C99.2969 213.984 99.2344 213.906 99.2031 213.781C98.8594 213.844 98.5 213.875 98.125 213.875C97.75 213.844 97.3906 213.922 97.0469 214.109L96.7656 213.922C96.7031 213.859 96.6094 213.812 96.4844 213.781C96.1719 213.969 95.7969 214.109 95.3594 214.203C94.9219 214.266 94.4844 214.312 94.0469 214.344C93.6406 214.375 93.2812 214.391 92.9688 214.391C92.6562 214.391 92.4531 214.422 92.3594 214.484C92.1406 214.359 91.9219 214.312 91.7031 214.344C91.4844 214.344 91.2656 214.375 91.0469 214.438C90.8281 214.469 90.5938 214.484 90.3438 214.484C90.125 214.484 89.9062 214.422 89.6875 214.297C89.5312 214.266 89.375 214.281 89.2188 214.344C89.0938 214.406 88.9531 214.422 88.7969 214.391C88.7656 214.141 88.7031 213.859 88.6094 213.547C88.5469 213.203 88.5781 212.906 88.7031 212.656C88.4219 212.344 88.2656 211.969 88.2344 211.531C88.2344 211.062 88.125 210.656 87.9062 210.312C88.0625 210.188 88.1094 210.078 88.0469 209.984C87.9844 209.891 87.9688 209.766 88 209.609C88.0312 209.516 88.0938 209.453 88.1875 209.422C88.3125 209.391 88.375 209.297 88.375 209.141C88.375 208.984 88.3438 208.859 88.2812 208.766C88.2188 208.641 88.1875 208.5 88.1875 208.344C88.1875 208.094 88.2188 207.875 88.2812 207.688C88.3438 207.469 88.375 207.25 88.375 207.031C88.375 206.906 88.3594 206.781 88.3281 206.656C88.2969 206.531 88.2969 206.406 88.3281 206.281C88.3594 206.188 88.4062 206.109 88.4688 206.047C88.5312 205.953 88.5625 205.859 88.5625 205.766C88.4062 205.609 88.3281 205.375 88.3281 205.062C88.3906 204.938 88.4688 204.828 88.5625 204.734C88.6562 204.609 88.7344 204.484 88.7969 204.359C88.5469 203.828 88.4531 203.234 88.5156 202.578C88.6094 201.891 88.7812 201.297 89.0312 200.797C89.25 200.672 89.4062 200.672 89.5 200.797C89.5938 200.891 89.7344 200.953 89.9219 200.984C90.5156 200.766 91.125 200.672 91.75 200.703C92.4062 200.734 93.0156 200.625 93.5781 200.375C93.7344 200.5 93.9688 200.531 94.2812 200.469C94.5938 200.281 94.9688 200.203 95.4062 200.234C95.875 200.234 96.2812 200.156 96.625 200C96.7812 200.125 97 200.188 97.2812 200.188C97.5 200.188 97.7031 200.156 97.8906 200.094C98.0781 200 98.2969 199.953 98.5469 199.953C98.7031 199.953 98.8438 199.969 98.9688 200C99.0938 200.031 99.2344 200.047 99.3906 200.047C99.5781 200.047 99.7344 199.984 99.8594 199.859C100.266 200.141 100.641 200.203 100.984 200.047C101.359 199.859 101.75 199.766 102.156 199.766C102.312 199.766 102.516 199.797 102.766 199.859C103.016 199.922 103.203 199.859 103.328 199.672C103.391 199.797 103.5 199.844 103.656 199.812C103.844 199.781 103.953 199.844 103.984 200C104.109 200 104.203 199.969 104.266 199.906C104.328 199.812 104.562 199.797 104.969 199.859C105.125 199.859 105.281 199.828 105.438 199.766C105.625 199.672 105.781 199.703 105.906 199.859C106.062 199.703 106.25 199.656 106.469 199.719C106.688 199.75 106.906 199.734 107.125 199.672C107.312 199.609 107.484 199.531 107.641 199.438C107.797 199.344 108 199.328 108.25 199.391C108.344 199.203 108.469 199.047 108.625 198.922C108.781 198.797 108.906 198.641 109 198.453C108.844 198.328 108.781 198.203 108.812 198.078C108.844 197.953 108.875 197.812 108.906 197.656C108.75 197.469 108.625 197.281 108.531 197.094C108.438 196.906 108.406 196.688 108.438 196.438C108.25 196.344 108.109 196.203 108.016 196.016C107.422 196.078 106.984 196.031 106.703 195.875C106.453 195.688 106.219 195.594 106 195.594C105.875 195.594 105.781 195.625 105.719 195.688C105.688 195.75 105.484 195.703 105.109 195.547C104.984 195.547 104.859 195.562 104.734 195.594C104.641 195.625 104.516 195.641 104.359 195.641C103.953 195.641 103.547 195.703 103.141 195.828C102.766 195.953 102.375 196.016 101.969 196.016C101.469 196.016 101.047 196 100.703 195.969C100.359 195.906 99.9219 195.984 99.3906 196.203C99.3906 196.078 99.3281 196.016 99.2031 196.016C99.1094 196.016 99 196.031 98.875 196.062C98.7812 196.094 98.6719 196.141 98.5469 196.203C98.4219 196.266 98.3438 196.312 98.3125 196.344C98.1562 196.25 98.0156 196.203 97.8906 196.203C97.7656 196.172 97.6406 196.172 97.5156 196.203C97.4219 196.203 97.3125 196.219 97.1875 196.25C97.0625 196.25 96.9531 196.203 96.8594 196.109C96.7344 196.266 96.5625 196.438 96.3438 196.625C96.125 196.781 95.9219 196.859 95.7344 196.859C95.6094 196.859 95.5 196.844 95.4062 196.812C95.3125 196.75 95.2188 196.719 95.125 196.719C94.9688 196.719 94.8438 196.766 94.75 196.859C94.6562 196.953 94.4844 197 94.2344 197H93.8594C93.7344 196.969 93.4688 196.953 93.0625 196.953C92.8125 196.922 92.5938 196.953 92.4062 197.047C92.2188 197.109 92.0156 197.141 91.7969 197.141C91.3281 197.141 90.8438 197.094 90.3438 197C89.8438 196.875 89.3594 196.891 88.8906 197.047C88.8906 197.016 88.8281 196.844 88.7031 196.531C88.6094 196.219 88.5625 196.031 88.5625 195.969C88.5625 195.844 88.5781 195.734 88.6094 195.641C88.6719 195.547 88.7031 195.438 88.7031 195.312C88.7031 195.156 88.6719 195.016 88.6094 194.891C88.5781 194.766 88.5625 194.641 88.5625 194.516C88.5625 194.391 88.5938 194.297 88.6562 194.234C88.75 194.172 88.7969 194.094 88.7969 194C88.7969 193.906 88.7812 193.828 88.75 193.766C88.7188 193.672 88.7031 193.578 88.7031 193.484C88.7031 193.359 88.7188 193.25 88.75 193.156C88.7812 193.062 88.7969 192.969 88.7969 192.875C88.7969 192.781 88.75 192.703 88.6562 192.641C88.5938 192.547 88.6094 192.312 88.7031 191.938C88.7031 191.312 88.6562 190.672 88.5625 190.016C88.5312 189.859 88.4844 189.719 88.4219 189.594C88.3594 189.469 88.3281 189.328 88.3281 189.172C88.3281 189.078 88.3438 188.984 88.375 188.891C88.4375 188.797 88.4688 188.703 88.4688 188.609C88.4688 188.453 88.4219 188.281 88.3281 188.094C88.2656 187.875 88.3438 187.703 88.5625 187.578C88.8125 187.578 89.0781 187.594 89.3594 187.625C89.6406 187.625 89.9062 187.578 90.1562 187.484C90.4062 187.641 90.7188 187.734 91.0938 187.766C91.5 187.797 91.8438 187.734 92.125 187.578C92.625 187.734 93.1406 187.781 93.6719 187.719C94.2031 187.656 94.7031 187.719 95.1719 187.906C95.7031 187.656 96.3281 187.531 97.0469 187.531C97.7656 187.5 98.4062 187.594 98.9688 187.812C99.125 187.75 99.2344 187.672 99.2969 187.578C99.3594 187.453 99.4844 187.391 99.6719 187.391C99.9219 187.391 100.141 187.422 100.328 187.484C100.547 187.516 100.781 187.531 101.031 187.531C101.281 187.531 101.531 187.484 101.781 187.391C102.062 187.297 102.328 187.25 102.578 187.25C102.766 187.25 102.922 187.297 103.047 187.391C103.172 187.453 103.312 187.484 103.469 187.484C103.594 187.484 103.734 187.469 103.891 187.438C104.047 187.375 104.156 187.422 104.219 187.578C104.469 187.453 104.719 187.406 104.969 187.438C105.25 187.469 105.516 187.453 105.766 187.391C105.891 187.359 106 187.297 106.094 187.203C106.188 187.109 106.297 187.062 106.422 187.062C106.609 187.062 106.781 187.047 106.938 187.016C107.094 186.953 107.266 186.938 107.453 186.969C107.672 186.844 107.828 186.734 107.922 186.641C108.047 186.547 108.266 186.531 108.578 186.594C108.609 186.406 108.703 186.281 108.859 186.219C109.047 186.125 109.141 185.984 109.141 185.797C109.141 185.672 109.062 185.594 108.906 185.562C108.781 185.5 108.734 185.391 108.766 185.234C108.922 185.234 109.016 185.188 109.047 185.094ZM141.203 195.453C141.234 195.078 141.219 194.719 141.156 194.375C141.25 194.25 141.328 194.172 141.391 194.141C141.453 194.078 141.484 193.953 141.484 193.766C141.359 193.609 141.266 193.375 141.203 193.062C141.141 192.75 141.188 192.516 141.344 192.359C141.188 192.359 141.109 192.281 141.109 192.125C141.141 191.938 141.125 191.812 141.062 191.75C141.188 191.625 141.219 191.453 141.156 191.234C141.094 190.984 141.125 190.781 141.25 190.625C141.188 190.5 141.109 190.453 141.016 190.484C140.953 190.484 140.922 190.359 140.922 190.109C140.922 190.016 140.953 189.953 141.016 189.922C141.078 189.859 141.094 189.766 141.062 189.641C141.062 189.234 141.125 188.859 141.25 188.516C141.406 188.141 141.484 187.766 141.484 187.391C141.484 187.297 141.453 187.219 141.391 187.156C141.359 187.062 141.344 186.969 141.344 186.875C141.344 186.688 141.359 186.484 141.391 186.266C141.422 186.047 141.406 185.844 141.344 185.656C141.281 185.5 141.188 185.375 141.062 185.281C140.938 185.156 140.891 184.984 140.922 184.766C140.766 184.641 140.609 184.547 140.453 184.484C140.297 184.391 140.141 184.281 139.984 184.156C139.828 184.125 139.703 184.156 139.609 184.25C139.547 184.344 139.422 184.375 139.234 184.344C138.953 184.156 138.719 184.109 138.531 184.203C138.375 184.266 138.219 184.375 138.062 184.531C137.938 184.656 137.797 184.812 137.641 185C137.484 185.156 137.297 185.234 137.078 185.234C137.109 185.672 137.141 186.125 137.172 186.594C137.234 187.031 137.25 187.469 137.219 187.906C137.156 187.969 137.125 188.047 137.125 188.141C137.125 188.234 137.062 188.328 136.938 188.422C136.938 188.578 136.891 188.734 136.797 188.891C136.703 189.047 136.656 189.234 136.656 189.453C136.656 189.672 136.672 189.891 136.703 190.109C136.766 190.328 136.75 190.531 136.656 190.719C136.906 190.844 137.031 191.078 137.031 191.422C137.031 191.828 136.984 192.234 136.891 192.641C136.828 193.016 136.828 193.391 136.891 193.766C136.922 194.047 136.969 194.203 137.031 194.234C137.125 194.266 137.141 194.484 137.078 194.891C137.172 195.078 137.188 195.297 137.125 195.547C137.062 195.766 137.094 195.984 137.219 196.203C137.188 196.328 137.125 196.438 137.031 196.531C136.938 196.594 136.891 196.688 136.891 196.812C136.891 196.969 136.922 197.078 136.984 197.141C137.078 197.203 137.125 197.297 137.125 197.422C137.125 197.578 137.078 197.734 136.984 197.891C136.922 198.016 136.922 198.266 136.984 198.641C136.984 198.859 136.906 199.109 136.75 199.391C136.625 199.641 136.562 199.906 136.562 200.188C136.562 200.406 136.609 200.625 136.703 200.844C136.797 201.031 136.844 201.25 136.844 201.5C136.844 202.219 136.734 202.938 136.516 203.656C136.328 204.344 136.234 205.047 136.234 205.766C136.234 205.859 136.25 205.969 136.281 206.094C136.312 206.188 136.328 206.281 136.328 206.375C136.328 206.594 136.281 206.812 136.188 207.031C136.125 207.219 136.172 207.406 136.328 207.594C136.203 207.688 136.094 207.812 136 207.969C135.938 208.094 135.875 208.234 135.812 208.391V209.094C135.656 209.312 135.547 209.547 135.484 209.797C135.453 210.047 135.422 210.281 135.391 210.5C135.391 210.719 135.375 210.906 135.344 211.062C135.312 211.219 135.25 211.312 135.156 211.344C135.031 211.125 134.891 210.922 134.734 210.734C134.609 210.516 134.516 210.281 134.453 210.031C134.141 209.906 133.922 209.703 133.797 209.422C133.672 209.141 133.562 208.875 133.469 208.625C133.156 208.469 132.891 208.266 132.672 208.016C132.484 207.766 132.25 207.562 131.969 207.406V206.891C131.719 206.859 131.578 206.734 131.547 206.516V205.953C131.453 205.922 131.406 205.875 131.406 205.812C131.406 205.719 131.312 205.609 131.125 205.484C131.062 205.328 131.016 205.172 130.984 205.016C130.984 204.828 130.922 204.672 130.797 204.547C130.641 204.391 130.5 204.234 130.375 204.078C130.25 203.891 130.219 203.672 130.281 203.422C130.219 203.359 130.125 203.312 130 203.281C129.875 203.219 129.828 203.062 129.859 202.812C129.703 202.656 129.562 202.5 129.438 202.344C129.312 202.156 129.172 201.844 129.016 201.406C128.672 201.125 128.406 200.797 128.219 200.422C128.062 200.047 127.828 199.734 127.516 199.484C127.547 199.359 127.594 199.281 127.656 199.25C127.75 199.219 127.766 199.125 127.703 198.969C127.516 198.844 127.375 198.688 127.281 198.5C127.188 198.281 127.125 198.062 127.094 197.844L126.766 197.516C126.672 197.422 126.594 197.297 126.531 197.141C126.562 197.016 126.547 196.891 126.484 196.766C126.422 196.609 126.438 196.5 126.531 196.438C126.469 196.406 126.375 196.328 126.25 196.203C126.156 196.047 126.047 195.875 125.922 195.688C125.797 195.5 125.672 195.328 125.547 195.172L125.359 194.797V194.188C125.172 194.031 125 193.859 124.844 193.672C124.938 193.703 124.969 193.641 124.938 193.484C124.906 193.328 124.766 193.156 124.516 192.969C124.547 192.719 124.484 192.562 124.328 192.5C124.172 192.438 124.062 192.328 124 192.172C123.906 191.922 123.812 191.75 123.719 191.656C123.625 191.531 123.5 191.359 123.344 191.141C123.312 190.984 123.281 190.875 123.25 190.812C123.219 190.719 123.219 190.594 123.25 190.438C123.062 190.469 122.953 190.406 122.922 190.25C122.922 190.094 122.891 189.953 122.828 189.828C122.734 189.578 122.641 189.406 122.547 189.312C122.484 189.188 122.469 188.984 122.5 188.703C122.219 188.609 122.062 188.453 122.031 188.234C122 188.016 121.938 187.797 121.844 187.578C121.719 187.484 121.609 187.391 121.516 187.297C121.453 187.172 121.359 187.062 121.234 186.969C120.891 186.812 120.547 186.703 120.203 186.641C119.859 186.547 119.516 186.422 119.172 186.266C119.141 186.078 119.078 185.953 118.984 185.891C118.922 185.797 118.844 185.547 118.75 185.141C118.469 184.922 118.141 184.812 117.766 184.812C117.422 184.812 117.078 184.797 116.734 184.766C115.953 185.328 115.453 185.781 115.234 186.125C115.016 186.469 114.922 186.812 114.953 187.156C114.984 187.469 115.078 187.844 115.234 188.281C115.391 188.688 115.469 189.234 115.469 189.922C115.469 190.328 115.391 190.641 115.234 190.859C115.391 190.828 115.469 190.859 115.469 190.953L115.562 191.234C115.531 191.328 115.453 191.469 115.328 191.656C115.516 191.938 115.578 192.234 115.516 192.547C115.484 192.859 115.469 193.172 115.469 193.484C115.469 193.578 115.484 193.672 115.516 193.766C115.547 193.859 115.562 193.969 115.562 194.094C115.562 194.188 115.547 194.281 115.516 194.375C115.484 194.438 115.469 194.516 115.469 194.609C115.469 194.703 115.5 194.797 115.562 194.891C115.625 194.953 115.656 195.031 115.656 195.125C115.594 195.188 115.562 195.344 115.562 195.594V196.109C115.562 196.172 115.578 196.234 115.609 196.297C115.641 196.328 115.625 196.453 115.562 196.672C115.562 196.797 115.594 196.953 115.656 197.141C115.75 197.297 115.797 197.469 115.797 197.656C115.797 197.906 115.781 198.172 115.75 198.453C115.719 198.703 115.656 198.938 115.562 199.156C115.719 199.5 115.797 199.953 115.797 200.516C115.797 201.047 115.719 201.484 115.562 201.828C115.781 202.172 115.859 202.562 115.797 203C115.766 203.438 115.719 203.859 115.656 204.266C115.781 204.328 115.859 204.422 115.891 204.547C115.922 204.672 115.938 204.812 115.938 204.969C115.969 205.094 116 205.234 116.031 205.391C116.062 205.547 116.125 205.672 116.219 205.766C116.094 205.859 116.016 205.969 115.984 206.094V206.469C115.984 206.562 116.016 206.656 116.078 206.75C116.172 206.812 116.219 206.891 116.219 206.984C116.219 207.078 116.188 207.172 116.125 207.266C116.094 207.328 116.078 207.406 116.078 207.5C116.078 207.594 116.094 207.688 116.125 207.781C116.188 207.844 116.219 207.922 116.219 208.016C116.219 208.234 116.156 208.453 116.031 208.672C115.906 208.891 115.875 209.25 115.938 209.75C115.938 209.906 115.953 210.078 115.984 210.266C116.047 210.422 116.078 210.578 116.078 210.734C116.078 210.828 116.062 210.969 116.031 211.156C116.031 211.344 116.016 211.547 115.984 211.766C115.984 211.953 115.953 212.141 115.891 212.328C115.859 212.516 115.828 212.625 115.797 212.656C115.891 212.75 115.938 212.875 115.938 213.031C115.938 213.188 115.984 213.297 116.078 213.359C115.953 213.703 115.891 214.078 115.891 214.484C115.922 214.891 115.922 215.266 115.891 215.609C115.859 215.797 115.812 215.984 115.75 216.172C115.719 216.359 115.703 216.547 115.703 216.734C115.703 217.078 115.859 217.359 116.172 217.578C116.484 217.766 116.922 217.828 117.484 217.766C117.641 217.516 117.859 217.344 118.141 217.25C118.422 217.156 118.703 217.078 118.984 217.016C119.078 217.172 119.125 217.344 119.125 217.531C119.156 217.719 119.312 217.797 119.594 217.766C119.812 217.516 119.969 217.281 120.062 217.062C120.188 216.812 120.188 216.531 120.062 216.219C120.188 216.125 120.25 216.016 120.25 215.891C120.281 215.734 120.297 215.578 120.297 215.422V214.953C120.328 214.797 120.391 214.672 120.484 214.578C120.547 214.453 120.516 214.391 120.391 214.391C120.266 214.359 120.219 214.266 120.25 214.109C120.344 214.047 120.391 213.953 120.391 213.828C120.391 213.672 120.422 213.562 120.484 213.5C120.234 213.219 120.141 212.891 120.203 212.516C120.297 212.109 120.344 211.734 120.344 211.391C120.344 211.266 120.281 211.188 120.156 211.156C120.062 211.125 120.016 211.047 120.016 210.922C120.016 210.328 119.953 209.797 119.828 209.328C119.984 209.109 120.062 208.906 120.062 208.719C120.062 208.562 120.031 208.406 119.969 208.25C119.938 208.094 119.922 207.938 119.922 207.781C119.922 207.344 119.969 206.906 120.062 206.469C120.188 206 120.25 205.531 120.25 205.062C120.188 204.906 120.125 204.766 120.062 204.641C120.031 204.516 119.984 204.391 119.922 204.266C119.922 204.141 119.969 204.078 120.062 204.078C120.156 204.078 120.188 204 120.156 203.844C120.062 203.812 120.031 203.594 120.062 203.188C120.062 203.062 120 202.953 119.875 202.859C119.781 202.734 119.734 202.625 119.734 202.531V202.25C119.734 202.156 119.688 202.078 119.594 202.016C119.75 201.984 119.828 201.906 119.828 201.781C119.859 201.625 119.891 201.5 119.922 201.406C119.859 201.344 119.781 201.281 119.688 201.219C119.625 201.125 119.594 201.016 119.594 200.891C119.594 200.672 119.578 200.453 119.547 200.234C119.516 200.016 119.531 199.656 119.594 199.156C119.594 198.875 119.547 198.594 119.453 198.312C119.359 198.031 119.344 197.672 119.406 197.234C119.281 197.172 119.25 197.078 119.312 196.953C119.375 196.797 119.406 196.672 119.406 196.578C119.406 196.484 119.359 196.406 119.266 196.344C119.203 196.25 119.172 196.141 119.172 196.016C119.297 195.859 119.344 195.734 119.312 195.641C119.312 195.516 119.344 195.297 119.406 194.984C119.375 194.828 119.328 194.672 119.266 194.516C119.203 194.359 119.172 194.203 119.172 194.047V193.156C119.203 192.812 119.141 192.516 118.984 192.266C119.141 192.297 119.203 192.25 119.172 192.125C119.141 191.969 119.188 191.875 119.312 191.844C119.438 192.094 119.562 192.312 119.688 192.5C119.844 192.688 119.969 192.906 120.062 193.156C120.188 193.344 120.297 193.5 120.391 193.625C120.516 193.75 120.578 193.938 120.578 194.188C120.828 194.281 121.016 194.469 121.141 194.75C121.266 195 121.328 195.25 121.328 195.5C121.547 195.562 121.656 195.656 121.656 195.781C121.656 195.906 121.75 196.094 121.938 196.344C122 196.406 122.016 196.484 121.984 196.578C121.984 196.672 122.016 196.75 122.078 196.812C122.141 196.969 122.219 197.094 122.312 197.188C122.438 197.281 122.562 197.531 122.688 197.938C122.75 198.031 122.797 198.109 122.828 198.172L123.016 198.359C123.078 198.484 123.109 198.609 123.109 198.734C123.141 198.828 123.188 198.938 123.25 199.062C123.312 199.188 123.391 199.297 123.484 199.391C123.609 199.453 123.703 199.547 123.766 199.672C123.703 199.891 123.703 200.031 123.766 200.094C123.859 200.156 123.938 200.219 124 200.281C124.062 200.406 124.078 200.547 124.047 200.703C124.016 200.828 124.031 200.953 124.094 201.078C124.156 201.328 124.281 201.594 124.469 201.875C124.688 202.125 124.812 202.469 124.844 202.906C124.969 203.062 125.016 203.203 124.984 203.328C124.953 203.422 124.969 203.531 125.031 203.656C125.094 203.719 125.172 203.781 125.266 203.844C125.359 203.875 125.391 204.016 125.359 204.266C125.391 204.297 125.469 204.391 125.594 204.547C125.75 204.703 125.906 204.875 126.062 205.062C126.25 205.25 126.406 205.438 126.531 205.625L126.859 205.953C126.859 206.172 126.891 206.344 126.953 206.469L127.234 206.844C127.328 206.938 127.406 207.062 127.469 207.219C127.562 207.344 127.609 207.531 127.609 207.781C127.672 207.844 127.766 207.891 127.891 207.922C128.016 207.953 128.141 208.109 128.266 208.391C128.359 208.516 128.406 208.641 128.406 208.766C128.438 208.891 128.484 209 128.547 209.094L128.734 209.281C128.797 209.344 128.812 209.484 128.781 209.703C128.906 209.766 129.031 209.844 129.156 209.938C129.281 210 129.375 210.094 129.438 210.219C129.5 210.469 129.609 210.719 129.766 210.969C129.922 211.188 130.016 211.422 130.047 211.672C130.359 211.734 130.641 211.984 130.891 212.422C131.141 212.828 131.297 213.188 131.359 213.5C131.422 213.562 131.5 213.625 131.594 213.688C131.719 213.75 131.844 213.922 131.969 214.203C132.031 214.297 132.172 214.422 132.391 214.578C132.609 214.734 132.688 214.906 132.625 215.094C132.844 215.281 132.984 215.438 133.047 215.562C133.109 215.688 133.141 215.797 133.141 215.891C133.141 215.953 133.109 216.016 133.047 216.078C133.016 216.141 133.016 216.219 133.047 216.312C133.328 216.375 133.578 216.484 133.797 216.641C134.047 216.797 134.297 216.922 134.547 217.016C134.578 217.234 134.656 217.406 134.781 217.531C134.906 217.656 135.047 217.766 135.203 217.859C135.391 217.922 135.578 217.969 135.766 218C135.984 218.062 136.172 218.109 136.328 218.141C136.484 218.078 136.609 218 136.703 217.906C136.797 217.781 136.922 217.688 137.078 217.625C137.109 217.5 137.078 217.391 136.984 217.297C136.922 217.172 136.953 217.047 137.078 216.922C137.234 216.891 137.359 216.922 137.453 217.016C137.547 217.078 137.672 217.078 137.828 217.016C137.984 216.859 138.141 216.719 138.297 216.594C138.484 216.469 138.688 216.375 138.906 216.312C138.938 216.219 138.984 216.141 139.047 216.078C139.109 216.016 139.141 215.922 139.141 215.797C139.203 215.734 139.281 215.703 139.375 215.703C139.5 215.672 139.562 215.578 139.562 215.422V214.25C139.594 213.812 139.547 213.422 139.422 213.078C139.359 212.922 139.297 212.797 139.234 212.703C139.172 212.609 139.141 212.484 139.141 212.328C139.141 211.922 139.234 211.594 139.422 211.344C139.609 211.062 139.688 210.656 139.656 210.125L139.844 209.938C139.938 209.875 139.984 209.797 139.984 209.703V208.812C139.984 208.5 140.016 208.188 140.078 207.875C140.109 207.781 140.172 207.625 140.266 207.406C140.359 207.188 140.406 207.047 140.406 206.984C140.406 206.891 140.375 206.812 140.312 206.75C140.281 206.656 140.344 206.531 140.5 206.375L140.266 205.953L140.5 204.359C140.5 204.297 140.531 204.219 140.594 204.125C140.688 204 140.734 203.891 140.734 203.797C140.734 203.672 140.719 203.547 140.688 203.422C140.656 203.266 140.703 203.141 140.828 203.047C140.734 202.984 140.656 202.844 140.594 202.625C140.844 202.375 140.938 202.125 140.875 201.875C140.844 201.625 140.859 201.359 140.922 201.078C140.953 200.984 141.016 200.922 141.109 200.891C141.234 200.859 141.281 200.766 141.25 200.609C141.094 200.391 141.031 200.172 141.062 199.953C141.125 199.703 141.156 199.469 141.156 199.25C141.156 199.062 141.109 198.891 141.016 198.734C140.953 198.547 140.922 198.359 140.922 198.172C140.922 197.922 140.953 197.688 141.016 197.469C141.109 197.219 141.156 196.906 141.156 196.531C141.188 196.188 141.203 195.828 141.203 195.453ZM173.359 185.094C173.422 184.969 173.516 184.891 173.641 184.859C173.578 184.672 173.531 184.484 173.5 184.297C173.5 184.109 173.484 183.922 173.453 183.734C173.203 183.703 173 183.641 172.844 183.547C172.719 183.422 172.5 183.391 172.188 183.453C172.156 183.297 172.062 183.203 171.906 183.172C171.781 183.141 171.656 183.094 171.531 183.031C171.094 183.281 170.625 183.406 170.125 183.406C169.656 183.375 169.203 183.281 168.766 183.125C168.516 183.281 168.219 183.375 167.875 183.406C167.531 183.406 167.266 183.516 167.078 183.734C166.734 183.734 166.375 183.766 166 183.828C165.656 183.891 165.312 183.922 164.969 183.922C164.812 183.922 164.672 183.891 164.547 183.828C164.453 183.766 164.328 183.734 164.172 183.734C163.922 183.734 163.688 183.766 163.469 183.828C163.281 183.891 162.953 183.891 162.484 183.828H161.641C161.359 183.828 161.078 183.797 160.797 183.734L160.422 183.922C160.328 183.984 160.203 184.016 160.047 184.016C159.453 184.016 158.844 184 158.219 183.969C157.594 183.938 157 184.062 156.438 184.344C156.219 184.188 155.984 184.141 155.734 184.203C155.484 184.234 155.234 184.25 154.984 184.25C154.641 184.25 154.312 184.188 154 184.062C153.719 183.906 153.391 183.859 153.016 183.922C152.922 183.891 152.781 183.812 152.594 183.688C152.438 183.562 152.25 183.453 152.031 183.359C151.844 183.266 151.656 183.203 151.469 183.172C151.312 183.109 151.094 183.094 150.812 183.125C150.719 183.125 150.531 183.188 150.25 183.312C150 183.438 149.844 183.547 149.781 183.641C149.719 183.734 149.625 183.812 149.5 183.875C149.375 183.906 149.281 183.953 149.219 184.016C149.125 184.547 149.062 185.109 149.031 185.703C149 186.297 149.062 186.859 149.219 187.391C149 187.609 148.875 187.844 148.844 188.094C149.094 188.562 149.125 189.062 148.938 189.594C148.781 190.094 148.703 190.578 148.703 191.047C148.703 191.234 148.734 191.422 148.797 191.609C148.859 191.797 148.891 191.984 148.891 192.172C148.891 192.391 148.859 192.609 148.797 192.828C148.766 193.016 148.75 193.234 148.75 193.484C148.75 193.547 148.766 193.625 148.797 193.719C148.828 193.781 148.812 193.875 148.75 194C148.75 194.188 148.781 194.422 148.844 194.703C148.906 194.953 148.969 195.219 149.031 195.5C149.094 195.781 149.109 196.047 149.078 196.297C149.078 196.516 149 196.688 148.844 196.812C148.969 197 149.031 197.219 149.031 197.469C149.062 197.688 149.062 197.922 149.031 198.172V198.875C149.031 199.094 149.094 199.297 149.219 199.484C149.031 199.828 148.969 200.203 149.031 200.609C149.094 200.984 149.109 201.344 149.078 201.688C148.828 201.938 148.703 202.25 148.703 202.625C148.703 202.969 148.609 203.266 148.422 203.516C148.516 203.672 148.578 203.891 148.609 204.172C148.672 204.422 148.703 204.625 148.703 204.781C148.703 204.906 148.672 205.016 148.609 205.109C148.547 205.203 148.562 205.328 148.656 205.484C148.656 205.797 148.609 206.094 148.516 206.375C148.453 206.656 148.422 206.953 148.422 207.266C148.422 207.516 148.469 207.766 148.562 208.016C148.656 208.266 148.703 208.516 148.703 208.766C148.703 209.016 148.688 209.312 148.656 209.656C148.625 210 148.547 210.266 148.422 210.453C148.516 210.453 148.547 210.625 148.516 210.969C148.516 211.094 148.547 211.203 148.609 211.297C148.703 211.359 148.75 211.438 148.75 211.531C148.75 211.75 148.703 211.953 148.609 212.141C148.547 212.297 148.516 212.469 148.516 212.656C148.516 212.969 148.562 213.328 148.656 213.734C148.75 214.141 148.672 214.469 148.422 214.719C148.672 214.781 148.766 214.875 148.703 215C148.641 215.125 148.656 215.266 148.75 215.422C148.875 215.578 148.922 215.703 148.891 215.797C148.891 215.859 148.922 215.969 148.984 216.125C149.078 216.312 149.203 216.484 149.359 216.641C149.547 216.766 149.688 216.938 149.781 217.156C149.844 217.281 149.875 217.422 149.875 217.578C149.875 217.703 149.906 217.828 149.969 217.953C150.031 218.016 150.109 218.062 150.203 218.094C150.297 218.156 150.328 218.281 150.297 218.469C150.609 218.406 150.859 218.453 151.047 218.609C151.234 218.766 151.453 218.844 151.703 218.844C152.172 218.844 152.609 218.734 153.016 218.516C153.422 218.328 153.969 218.281 154.656 218.375C154.844 218.375 155.016 218.328 155.172 218.234C155.328 218.172 155.5 218.141 155.688 218.141C155.781 218.141 155.875 218.156 155.969 218.188C156.062 218.219 156.156 218.234 156.25 218.234C156.344 218.234 156.422 218.203 156.484 218.141C156.578 218.078 156.688 218.047 156.812 218.047C156.938 218.047 157.016 218.078 157.047 218.141C157.109 218.203 157.219 218.203 157.375 218.141C157.531 218.016 157.688 217.922 157.844 217.859C158.031 217.797 158.203 217.719 158.359 217.625C158.516 217.75 158.734 217.797 159.016 217.766C159.297 217.734 159.531 217.734 159.719 217.766C159.938 217.609 160.078 217.516 160.141 217.484C160.203 217.453 160.25 217.453 160.281 217.484L160.375 217.578C160.438 217.609 160.547 217.625 160.703 217.625C160.953 217.469 161.281 217.422 161.688 217.484C162.125 217.516 162.5 217.469 162.812 217.344C162.938 217.375 163.016 217.438 163.047 217.531C163.109 217.625 163.344 217.641 163.75 217.578C163.938 217.578 164.125 217.609 164.312 217.672C164.5 217.734 164.672 217.797 164.828 217.859C165.047 217.703 165.266 217.656 165.484 217.719C165.703 217.75 166.031 217.719 166.469 217.625C166.656 217.625 166.828 217.641 166.984 217.672C167.172 217.703 167.344 217.719 167.5 217.719C168.031 217.719 168.531 217.656 169 217.531C169.5 217.375 169.969 217.172 170.406 216.922C170.562 216.984 170.781 216.984 171.062 216.922C171.344 216.859 171.609 216.781 171.859 216.688C172.109 216.594 172.328 216.484 172.516 216.359C172.703 216.203 172.781 216.062 172.75 215.938C172.781 215.812 172.781 215.734 172.75 215.703C172.719 215.672 172.656 215.641 172.562 215.609C172.5 215.578 172.438 215.562 172.375 215.562C172.344 215.531 172.328 215.484 172.328 215.422C172.516 215.172 172.594 214.938 172.562 214.719C172.438 214.562 172.297 214.438 172.141 214.344L171.672 213.969V213.5C171.328 213.312 170.984 213.234 170.641 213.266C170.297 213.266 169.969 213.297 169.656 213.359C169.344 213.422 169.031 213.469 168.719 213.5C168.438 213.5 168.188 213.422 167.969 213.266C167.719 213.328 167.484 213.438 167.266 213.594C167.078 213.719 166.859 213.812 166.609 213.875C166.172 213.969 165.734 214 165.297 213.969C164.891 213.906 164.469 213.953 164.031 214.109C163.938 214.078 163.828 214.047 163.703 214.016C163.609 213.984 163.547 213.906 163.516 213.781C163.172 213.844 162.812 213.875 162.438 213.875C162.062 213.844 161.703 213.922 161.359 214.109L161.078 213.922C161.016 213.859 160.922 213.812 160.797 213.781C160.484 213.969 160.109 214.109 159.672 214.203C159.234 214.266 158.797 214.312 158.359 214.344C157.953 214.375 157.594 214.391 157.281 214.391C156.969 214.391 156.766 214.422 156.672 214.484C156.453 214.359 156.234 214.312 156.016 214.344C155.797 214.344 155.578 214.375 155.359 214.438C155.141 214.469 154.906 214.484 154.656 214.484C154.438 214.484 154.219 214.422 154 214.297C153.844 214.266 153.688 214.281 153.531 214.344C153.406 214.406 153.266 214.422 153.109 214.391C153.078 214.141 153.016 213.859 152.922 213.547C152.859 213.203 152.891 212.906 153.016 212.656C152.734 212.344 152.578 211.969 152.547 211.531C152.547 211.062 152.438 210.656 152.219 210.312C152.375 210.188 152.422 210.078 152.359 209.984C152.297 209.891 152.281 209.766 152.312 209.609C152.344 209.516 152.406 209.453 152.5 209.422C152.625 209.391 152.688 209.297 152.688 209.141C152.688 208.984 152.656 208.859 152.594 208.766C152.531 208.641 152.5 208.5 152.5 208.344C152.5 208.094 152.531 207.875 152.594 207.688C152.656 207.469 152.688 207.25 152.688 207.031C152.688 206.906 152.672 206.781 152.641 206.656C152.609 206.531 152.609 206.406 152.641 206.281C152.672 206.188 152.719 206.109 152.781 206.047C152.844 205.953 152.875 205.859 152.875 205.766C152.719 205.609 152.641 205.375 152.641 205.062C152.703 204.938 152.781 204.828 152.875 204.734C152.969 204.609 153.047 204.484 153.109 204.359C152.859 203.828 152.766 203.234 152.828 202.578C152.922 201.891 153.094 201.297 153.344 200.797C153.562 200.672 153.719 200.672 153.812 200.797C153.906 200.891 154.047 200.953 154.234 200.984C154.828 200.766 155.438 200.672 156.062 200.703C156.719 200.734 157.328 200.625 157.891 200.375C158.047 200.5 158.281 200.531 158.594 200.469C158.906 200.281 159.281 200.203 159.719 200.234C160.188 200.234 160.594 200.156 160.938 200C161.094 200.125 161.312 200.188 161.594 200.188C161.812 200.188 162.016 200.156 162.203 200.094C162.391 200 162.609 199.953 162.859 199.953C163.016 199.953 163.156 199.969 163.281 200C163.406 200.031 163.547 200.047 163.703 200.047C163.891 200.047 164.047 199.984 164.172 199.859C164.578 200.141 164.953 200.203 165.297 200.047C165.672 199.859 166.062 199.766 166.469 199.766C166.625 199.766 166.828 199.797 167.078 199.859C167.328 199.922 167.516 199.859 167.641 199.672C167.703 199.797 167.812 199.844 167.969 199.812C168.156 199.781 168.266 199.844 168.297 200C168.422 200 168.516 199.969 168.578 199.906C168.641 199.812 168.875 199.797 169.281 199.859C169.438 199.859 169.594 199.828 169.75 199.766C169.938 199.672 170.094 199.703 170.219 199.859C170.375 199.703 170.562 199.656 170.781 199.719C171 199.75 171.219 199.734 171.438 199.672C171.625 199.609 171.797 199.531 171.953 199.438C172.109 199.344 172.312 199.328 172.562 199.391C172.656 199.203 172.781 199.047 172.938 198.922C173.094 198.797 173.219 198.641 173.312 198.453C173.156 198.328 173.094 198.203 173.125 198.078C173.156 197.953 173.188 197.812 173.219 197.656C173.062 197.469 172.938 197.281 172.844 197.094C172.75 196.906 172.719 196.688 172.75 196.438C172.562 196.344 172.422 196.203 172.328 196.016C171.734 196.078 171.297 196.031 171.016 195.875C170.766 195.688 170.531 195.594 170.312 195.594C170.188 195.594 170.094 195.625 170.031 195.688C170 195.75 169.797 195.703 169.422 195.547C169.297 195.547 169.172 195.562 169.047 195.594C168.953 195.625 168.828 195.641 168.672 195.641C168.266 195.641 167.859 195.703 167.453 195.828C167.078 195.953 166.688 196.016 166.281 196.016C165.781 196.016 165.359 196 165.016 195.969C164.672 195.906 164.234 195.984 163.703 196.203C163.703 196.078 163.641 196.016 163.516 196.016C163.422 196.016 163.312 196.031 163.188 196.062C163.094 196.094 162.984 196.141 162.859 196.203C162.734 196.266 162.656 196.312 162.625 196.344C162.469 196.25 162.328 196.203 162.203 196.203C162.078 196.172 161.953 196.172 161.828 196.203C161.734 196.203 161.625 196.219 161.5 196.25C161.375 196.25 161.266 196.203 161.172 196.109C161.047 196.266 160.875 196.438 160.656 196.625C160.438 196.781 160.234 196.859 160.047 196.859C159.922 196.859 159.812 196.844 159.719 196.812C159.625 196.75 159.531 196.719 159.438 196.719C159.281 196.719 159.156 196.766 159.062 196.859C158.969 196.953 158.797 197 158.547 197H158.172C158.047 196.969 157.781 196.953 157.375 196.953C157.125 196.922 156.906 196.953 156.719 197.047C156.531 197.109 156.328 197.141 156.109 197.141C155.641 197.141 155.156 197.094 154.656 197C154.156 196.875 153.672 196.891 153.203 197.047C153.203 197.016 153.141 196.844 153.016 196.531C152.922 196.219 152.875 196.031 152.875 195.969C152.875 195.844 152.891 195.734 152.922 195.641C152.984 195.547 153.016 195.438 153.016 195.312C153.016 195.156 152.984 195.016 152.922 194.891C152.891 194.766 152.875 194.641 152.875 194.516C152.875 194.391 152.906 194.297 152.969 194.234C153.062 194.172 153.109 194.094 153.109 194C153.109 193.906 153.094 193.828 153.062 193.766C153.031 193.672 153.016 193.578 153.016 193.484C153.016 193.359 153.031 193.25 153.062 193.156C153.094 193.062 153.109 192.969 153.109 192.875C153.109 192.781 153.062 192.703 152.969 192.641C152.906 192.547 152.922 192.312 153.016 191.938C153.016 191.312 152.969 190.672 152.875 190.016C152.844 189.859 152.797 189.719 152.734 189.594C152.672 189.469 152.641 189.328 152.641 189.172C152.641 189.078 152.656 188.984 152.688 188.891C152.75 188.797 152.781 188.703 152.781 188.609C152.781 188.453 152.734 188.281 152.641 188.094C152.578 187.875 152.656 187.703 152.875 187.578C153.125 187.578 153.391 187.594 153.672 187.625C153.953 187.625 154.219 187.578 154.469 187.484C154.719 187.641 155.031 187.734 155.406 187.766C155.812 187.797 156.156 187.734 156.438 187.578C156.938 187.734 157.453 187.781 157.984 187.719C158.516 187.656 159.016 187.719 159.484 187.906C160.016 187.656 160.641 187.531 161.359 187.531C162.078 187.5 162.719 187.594 163.281 187.812C163.438 187.75 163.547 187.672 163.609 187.578C163.672 187.453 163.797 187.391 163.984 187.391C164.234 187.391 164.453 187.422 164.641 187.484C164.859 187.516 165.094 187.531 165.344 187.531C165.594 187.531 165.844 187.484 166.094 187.391C166.375 187.297 166.641 187.25 166.891 187.25C167.078 187.25 167.234 187.297 167.359 187.391C167.484 187.453 167.625 187.484 167.781 187.484C167.906 187.484 168.047 187.469 168.203 187.438C168.359 187.375 168.469 187.422 168.531 187.578C168.781 187.453 169.031 187.406 169.281 187.438C169.562 187.469 169.828 187.453 170.078 187.391C170.203 187.359 170.312 187.297 170.406 187.203C170.5 187.109 170.609 187.062 170.734 187.062C170.922 187.062 171.094 187.047 171.25 187.016C171.406 186.953 171.578 186.938 171.766 186.969C171.984 186.844 172.141 186.734 172.234 186.641C172.359 186.547 172.578 186.531 172.891 186.594C172.922 186.406 173.016 186.281 173.172 186.219C173.359 186.125 173.453 185.984 173.453 185.797C173.453 185.672 173.375 185.594 173.219 185.562C173.094 185.5 173.047 185.391 173.078 185.234C173.234 185.234 173.328 185.188 173.359 185.094ZM193.75 187.719C193.844 187.812 193.984 187.844 194.172 187.812C194.203 187.906 194.219 188 194.219 188.094C194.219 188.188 194.375 188.203 194.688 188.141C194.781 188.141 194.906 188.188 195.062 188.281C195.219 188.375 195.375 188.422 195.531 188.422C195.625 188.422 195.703 188.406 195.766 188.375C195.859 188.312 195.953 188.281 196.047 188.281C196.203 188.281 196.391 188.328 196.609 188.422C196.828 188.516 196.969 188.641 197.031 188.797C197.188 188.859 197.281 188.875 197.312 188.844C197.344 188.812 197.422 188.766 197.547 188.703C197.672 188.859 197.766 188.984 197.828 189.078C197.922 189.141 198.078 189.156 198.297 189.125C198.516 189.5 198.891 189.828 199.422 190.109C199.578 190.141 199.703 190.141 199.797 190.109C199.922 190.047 200.062 190.016 200.219 190.016C200.406 190.016 200.578 190.062 200.734 190.156C200.891 190.219 201.062 190.25 201.25 190.25C201.5 190.25 201.719 190.203 201.906 190.109C202.125 189.984 202.344 189.875 202.562 189.781C202.594 189.531 202.625 189.297 202.656 189.078C202.688 188.859 202.734 188.625 202.797 188.375L202.328 187.531C202.172 187.219 202.047 186.891 201.953 186.547C201.859 186.547 201.766 186.578 201.672 186.641C201.578 186.672 201.484 186.688 201.391 186.688C201.359 186.688 201.281 186.672 201.156 186.641C201.031 186.578 200.891 186.516 200.734 186.453C200.609 186.359 200.484 186.281 200.359 186.219L200.078 186.078C200.016 185.828 199.891 185.703 199.703 185.703C199.516 185.672 199.391 185.547 199.328 185.328C199.172 185.359 199.016 185.344 198.859 185.281C198.703 185.219 198.547 185.203 198.391 185.234C198.266 185.141 198.047 185.047 197.734 184.953C197.453 184.859 197.141 184.766 196.797 184.672C196.484 184.578 196.172 184.5 195.859 184.438C195.547 184.375 195.312 184.344 195.156 184.344C195.031 184.25 194.938 184.141 194.875 184.016C194.812 183.891 194.703 183.797 194.547 183.734C194.391 183.672 194.219 183.656 194.031 183.688C193.875 183.719 193.719 183.688 193.562 183.594C193.344 183.469 193.062 183.406 192.719 183.406C192.375 183.375 192 183.375 191.594 183.406C191.219 183.406 190.844 183.438 190.469 183.5C190.094 183.531 189.781 183.547 189.531 183.547C189.406 183.547 189.281 183.531 189.156 183.5C189.031 183.438 188.906 183.406 188.781 183.406C188.531 183.406 188.297 183.484 188.078 183.641C187.891 183.766 187.531 183.828 187 183.828H186.578C186.484 183.797 186.266 183.891 185.922 184.109C185.797 184.141 185.688 184.203 185.594 184.297C185.531 184.391 185.453 184.469 185.359 184.531C185.203 184.469 184.984 184.5 184.703 184.625C184.422 184.719 184.156 184.75 183.906 184.719C183.562 184.906 183.297 185.141 183.109 185.422C182.953 185.672 182.797 185.969 182.641 186.312C182.484 186.562 182.312 186.797 182.125 187.016C181.938 187.234 181.812 187.5 181.75 187.812C181.5 187.969 181.312 188.172 181.188 188.422C181.062 188.672 180.844 188.828 180.531 188.891C180.5 189.047 180.391 189.266 180.203 189.547C180.016 189.828 179.844 189.984 179.688 190.016C179.719 190.172 179.719 190.328 179.688 190.484L179.594 190.953C179.344 191.297 179.203 191.672 179.172 192.078C179.172 192.453 179.031 192.812 178.75 193.156C179 193.344 179.078 193.609 178.984 193.953C178.922 194.266 178.859 194.547 178.797 194.797C178.953 194.891 179.047 195 179.078 195.125C179.141 195.219 179.219 195.344 179.312 195.5C179.312 196.062 179.578 196.562 180.109 197C180.078 197.125 180.078 197.234 180.109 197.328C180.172 197.422 180.203 197.531 180.203 197.656C180.516 197.781 180.719 197.906 180.812 198.031C180.969 198.375 181.188 198.688 181.469 198.969C181.75 199.219 181.984 199.5 182.172 199.812C182.328 199.781 182.422 199.797 182.453 199.859C182.484 199.922 182.562 199.938 182.688 199.906C182.719 199.969 182.797 200.078 182.922 200.234C183.078 200.359 183.234 200.5 183.391 200.656C183.547 200.781 183.688 200.891 183.812 200.984C183.969 201.078 184.234 201.094 184.609 201.031C184.734 201.156 184.875 201.234 185.031 201.266C185.219 201.297 185.391 201.312 185.547 201.312C185.828 201.312 186.016 201.375 186.109 201.5C186.203 201.594 186.328 201.641 186.484 201.641C186.891 201.609 187.188 201.656 187.375 201.781C187.594 201.875 187.844 201.922 188.125 201.922C188.219 201.922 188.312 201.906 188.406 201.875C188.5 201.844 188.594 201.828 188.688 201.828C188.906 201.828 189.109 201.859 189.297 201.922C189.484 201.984 189.688 202.016 189.906 202.016C190.031 202.016 190.156 202 190.281 201.969C190.406 201.938 190.547 201.922 190.703 201.922C190.797 201.922 190.891 201.938 190.984 201.969C191.078 202 191.188 202.016 191.312 202.016C191.469 202.016 191.625 201.984 191.781 201.922C191.938 201.828 192.094 201.781 192.25 201.781C192.688 201.781 193.109 201.891 193.516 202.109C193.953 202.328 194.391 202.469 194.828 202.531C194.891 202.625 194.938 202.703 194.969 202.766C195.031 202.828 195.078 202.922 195.109 203.047C195.266 203.047 195.406 203.016 195.531 202.953C195.688 202.859 195.797 202.812 195.859 202.812C196.109 203.125 196.391 203.266 196.703 203.234C197.016 203.203 197.344 203.297 197.688 203.516C197.719 203.547 197.797 203.609 197.922 203.703C198.047 203.797 198.188 203.891 198.344 203.984C198.531 204.078 198.688 204.172 198.812 204.266C198.969 204.328 199.078 204.375 199.141 204.406C199.203 204.688 199.297 204.891 199.422 205.016C199.578 205.109 199.641 205.328 199.609 205.672C199.734 205.828 199.859 206.062 199.984 206.375C200.141 206.656 200.266 206.969 200.359 207.312C200.484 207.656 200.578 207.984 200.641 208.297C200.703 208.609 200.734 208.859 200.734 209.047C200.734 209.109 200.719 209.188 200.688 209.281C200.656 209.344 200.672 209.5 200.734 209.75C200.734 209.906 200.719 210.062 200.688 210.219C200.656 210.344 200.672 210.484 200.734 210.641C200.578 210.891 200.453 211.141 200.359 211.391C200.297 211.641 200.109 211.812 199.797 211.906C199.859 212.062 199.859 212.219 199.797 212.375C199.609 212.344 199.5 212.391 199.469 212.516C199.438 212.609 199.344 212.625 199.188 212.562C199.125 212.719 199.047 212.906 198.953 213.125C198.891 213.312 198.766 213.438 198.578 213.5C198.516 213.562 198.422 213.594 198.297 213.594H198.016C197.672 213.844 197.297 214.047 196.891 214.203C196.484 214.328 196.141 214.562 195.859 214.906H195.344C195.281 215.094 195.094 215.234 194.781 215.328C194.625 215.391 194.328 215.484 193.891 215.609C193.484 215.734 193.219 215.797 193.094 215.797C192.906 215.797 192.703 215.781 192.484 215.75C192.297 215.719 192.094 215.703 191.875 215.703C191.625 215.703 191.359 215.719 191.078 215.75C190.797 215.781 190.531 215.797 190.281 215.797C189.938 215.797 189.641 215.75 189.391 215.656C189.172 215.531 188.906 215.438 188.594 215.375C188.531 215.531 188.375 215.609 188.125 215.609C188.062 215.609 188 215.562 187.938 215.469C187.875 215.344 187.766 215.281 187.609 215.281C187.359 215.281 187.141 215.266 186.953 215.234C186.797 215.172 186.594 215.094 186.344 215C186.188 215.094 186.031 215.125 185.875 215.094C185.75 215.031 185.594 215 185.406 215C185.188 214.781 184.922 214.625 184.609 214.531C184.328 214.438 184.078 214.281 183.859 214.062C183.797 213.906 183.75 213.797 183.719 213.734C183.688 213.641 183.672 213.516 183.672 213.359L183.297 213.172C183.172 213.109 183.062 213.047 182.969 212.984C183 212.641 182.922 212.438 182.734 212.375C182.547 212.312 182.422 212.172 182.359 211.953C182.266 211.609 182.141 211.344 181.984 211.156C181.828 210.969 181.75 210.688 181.75 210.312C181.5 210.188 181.281 210.016 181.094 209.797C180.938 209.578 180.766 209.359 180.578 209.141C180.516 209.328 180.422 209.422 180.297 209.422C180.172 209.422 180.031 209.406 179.875 209.375C179.75 209.344 179.609 209.344 179.453 209.375C179.328 209.375 179.141 209.391 178.891 209.422C178.734 209.766 178.547 210.109 178.328 210.453C178.109 210.797 178 211.156 178 211.531C178 211.812 178.078 212.062 178.234 212.281L178.703 212.938V213.734C178.891 213.984 179 214.172 179.031 214.297C179.094 214.391 179.109 214.578 179.078 214.859L179.547 215.328C179.703 215.453 179.875 215.547 180.062 215.609L180.344 216.078C180.469 216.234 180.609 216.375 180.766 216.5L181.047 216.688C181.141 216.75 181.203 216.859 181.234 217.016C181.609 217.172 181.891 217.422 182.078 217.766C182.578 217.828 183.047 217.969 183.484 218.188C183.922 218.438 184.406 218.562 184.938 218.562C185.312 218.562 185.562 218.609 185.688 218.703C185.844 218.797 186.094 218.891 186.438 218.984C186.531 219.016 186.625 219.031 186.719 219.031C186.844 219.031 186.953 219.047 187.047 219.078C187.297 219.141 187.516 219.219 187.703 219.312C187.922 219.406 188.156 219.5 188.406 219.594C188.75 219.375 189.078 219.328 189.391 219.453C189.703 219.609 190.031 219.688 190.375 219.688C190.562 219.688 190.734 219.641 190.891 219.547C191.078 219.484 191.266 219.453 191.453 219.453C191.703 219.453 191.828 219.5 191.828 219.594C191.859 219.719 191.969 219.781 192.156 219.781C192.312 219.781 192.641 219.703 193.141 219.547C193.641 219.422 193.969 219.328 194.125 219.266C194.375 219.391 194.656 219.391 194.969 219.266C195.312 219.172 195.641 219.141 195.953 219.172C196.422 218.797 196.953 218.484 197.547 218.234C197.609 218.047 197.688 217.906 197.781 217.812C197.906 217.719 198.047 217.594 198.203 217.438H198.766C198.891 217.375 198.984 217.297 199.047 217.203C199.109 217.078 199.219 217 199.375 216.969C199.969 216.812 200.391 216.594 200.641 216.312C200.922 216 201.344 215.672 201.906 215.328C201.969 215.266 202 215.219 202 215.188C202.031 215.125 202.141 215.094 202.328 215.094C202.453 214.781 202.531 214.547 202.562 214.391C202.656 214.328 202.766 214.297 202.891 214.297C203.016 214.266 203.078 214.172 203.078 214.016C203.078 213.734 203.156 213.5 203.312 213.312C203.469 213.094 203.531 212.828 203.5 212.516C203.656 212.484 203.734 212.438 203.734 212.375C203.766 212.281 203.859 212.219 204.016 212.188C203.984 211.938 204 211.734 204.062 211.578C204.156 211.422 204.312 211.266 204.531 211.109C204.469 210.859 204.484 210.703 204.578 210.641C204.672 210.547 204.719 210.391 204.719 210.172C204.719 210.078 204.672 209.984 204.578 209.891C204.516 209.797 204.484 209.719 204.484 209.656L204.578 209.375C204.609 209.281 204.625 209.172 204.625 209.047C204.625 208.766 204.562 208.484 204.438 208.203L204.156 207.359C204.062 207.078 203.984 206.797 203.922 206.516C203.891 206.203 203.922 205.875 204.016 205.531C203.859 205.375 203.75 205.203 203.688 205.016C203.625 204.828 203.531 204.656 203.406 204.5C203.406 204.156 203.297 203.859 203.078 203.609C202.891 203.359 202.828 203.109 202.891 202.859C202.641 202.734 202.406 202.422 202.188 201.922C201.812 201.797 201.562 201.547 201.438 201.172C201.281 201.203 201.172 201.203 201.109 201.172L201.016 201.078L200.922 200.891C200.891 200.828 200.812 200.797 200.688 200.797C200.531 200.641 200.344 200.547 200.125 200.516C199.938 200.484 199.812 200.344 199.75 200.094H199C198.75 199.781 198.453 199.578 198.109 199.484C197.766 199.391 197.422 199.312 197.078 199.25C196.953 199.156 196.844 199.047 196.75 198.922L196.469 198.547C196.188 198.641 195.938 198.672 195.719 198.641C195.531 198.578 195.344 198.5 195.156 198.406C194.969 198.312 194.766 198.234 194.547 198.172C194.359 198.078 194.156 198.062 193.938 198.125C193.781 198 193.625 197.891 193.469 197.797C193.344 197.672 193.188 197.578 193 197.516C192.812 197.672 192.5 197.781 192.062 197.844C191.656 197.906 191.203 197.953 190.703 197.984C190.234 198.016 189.766 198.031 189.297 198.031H188.219C187.969 197.938 187.766 197.766 187.609 197.516C187.359 197.609 187.141 197.656 186.953 197.656C186.797 197.625 186.641 197.578 186.484 197.516C186.328 197.453 186.172 197.375 186.016 197.281C185.859 197.188 185.672 197.109 185.453 197.047L185.266 196.766C185.234 196.672 185.188 196.562 185.125 196.438C184.875 196.375 184.703 196.281 184.609 196.156C184.547 196 184.344 195.812 184 195.594C184 195.344 183.906 195.188 183.719 195.125C183.438 195 183.328 194.922 183.391 194.891C183.453 194.828 183.375 194.688 183.156 194.469C183.156 194.281 183.109 194.125 183.016 194C182.922 193.844 182.875 193.672 182.875 193.484C182.875 193.234 182.906 193 182.969 192.781C183.031 192.562 183.188 192.25 183.438 191.844C183.5 191.375 183.625 191.047 183.812 190.859C184.031 190.641 184.406 190.328 184.938 189.922C185 189.703 185.062 189.516 185.125 189.359C185.219 189.172 185.297 188.969 185.359 188.75C185.391 188.719 185.5 188.656 185.688 188.562L186.25 188.188C186.438 188.062 186.609 187.953 186.766 187.859C186.953 187.766 187.062 187.719 187.094 187.719C187.312 187.656 187.578 187.641 187.891 187.672C188.203 187.703 188.453 187.656 188.641 187.531C188.703 187.5 188.75 187.469 188.781 187.438C188.812 187.406 189 187.422 189.344 187.484C189.438 187.484 189.578 187.453 189.766 187.391C189.953 187.297 190.188 187.25 190.469 187.25H190.938C191.094 187.25 191.25 187.234 191.406 187.203C191.531 187.234 191.641 187.297 191.734 187.391C191.828 187.484 191.953 187.531 192.109 187.531C192.203 187.531 192.297 187.516 192.391 187.484C192.484 187.453 192.578 187.469 192.672 187.531C192.859 187.656 193.109 187.672 193.422 187.578C193.547 187.578 193.656 187.625 193.75 187.719ZM225.578 215.891C225.672 215.734 225.781 215.562 225.906 215.375C226.031 215.188 226.141 215.016 226.234 214.859L226.422 214.484C226.266 214.547 226.172 214.547 226.141 214.484C226.109 214.391 226.062 214.297 226 214.203C226.062 213.984 226.078 213.812 226.047 213.688C226.016 213.531 225.953 213.391 225.859 213.266L225.578 212.891C225.484 212.766 225.422 212.625 225.391 212.469C225.234 212.469 225.094 212.516 224.969 212.609C224.875 212.672 224.75 212.688 224.594 212.656C224.375 212.469 224.109 212.391 223.797 212.422C223.484 212.453 223.203 212.438 222.953 212.375C222.891 212.719 222.703 212.906 222.391 212.938C222.078 212.938 221.656 213.047 221.125 213.266C221.062 213.266 220.984 213.25 220.891 213.219C220.828 213.188 220.641 213.234 220.328 213.359C220.234 213.359 220.141 213.344 220.047 213.312C219.984 213.281 219.906 213.266 219.812 213.266C219.656 213.266 219.516 213.297 219.391 213.359C219.266 213.391 219.141 213.359 219.016 213.266C218.984 213.016 218.922 212.781 218.828 212.562C218.766 212.344 218.688 212.109 218.594 211.859C218.688 211.703 218.719 211.5 218.688 211.25C218.688 210.969 218.766 210.766 218.922 210.641C218.484 210.266 218.312 209.797 218.406 209.234C218.312 209.141 218.219 209.062 218.125 209C218.031 208.906 218.094 208.672 218.312 208.297C218.25 208.172 218.219 208.016 218.219 207.828C218.25 207.641 218.266 207.469 218.266 207.312C218.266 207.125 218.25 206.953 218.219 206.797C218.188 206.641 218.109 206.5 217.984 206.375C218.141 206.281 218.172 206.156 218.078 206C218.016 205.812 218.047 205.641 218.172 205.484C218.109 205.328 218.031 205.25 217.938 205.25C217.844 205.219 217.797 205.125 217.797 204.969V204.688C217.828 204.562 217.766 204.344 217.609 204.031C217.766 203.875 217.828 203.688 217.797 203.469C217.766 203.25 217.703 203.062 217.609 202.906C217.672 202.781 217.719 202.641 217.75 202.484C217.781 202.328 217.859 202.203 217.984 202.109C217.828 201.953 217.766 201.781 217.797 201.594C217.859 201.375 217.859 201.172 217.797 200.984C217.859 200.859 217.906 200.75 217.938 200.656C217.969 200.531 218.016 200.406 218.078 200.281L217.891 200.094C217.828 200 217.797 199.891 217.797 199.766C217.797 199.453 217.781 199.141 217.75 198.828C217.75 198.484 217.797 198.156 217.891 197.844C217.734 197.75 217.641 197.625 217.609 197.469C217.578 197.281 217.531 197.109 217.469 196.953C217.625 196.859 217.672 196.719 217.609 196.531C217.578 196.344 217.641 196.203 217.797 196.109C217.641 195.766 217.578 195.469 217.609 195.219C217.672 194.938 217.703 194.625 217.703 194.281C217.703 194.094 217.672 193.906 217.609 193.719C217.578 193.5 217.562 193.297 217.562 193.109C217.562 192.891 217.594 192.688 217.656 192.5C217.75 192.281 217.797 192.062 217.797 191.844C217.797 191.688 217.766 191.562 217.703 191.469C217.641 191.344 217.609 191.203 217.609 191.047C217.609 190.953 217.625 190.875 217.656 190.812C217.688 190.719 217.703 190.625 217.703 190.531C217.703 190.438 217.688 190.359 217.656 190.297C217.625 190.203 217.641 189.984 217.703 189.641C217.703 189.328 217.719 189.031 217.75 188.75C217.812 188.438 217.859 188.125 217.891 187.812C218.422 187.625 218.953 187.547 219.484 187.578C220.047 187.578 220.594 187.656 221.125 187.812C221.25 187.656 221.391 187.562 221.547 187.531C221.703 187.5 221.875 187.484 222.062 187.484C222.25 187.266 222.469 187.094 222.719 186.969C222.969 186.844 223.219 186.75 223.469 186.688C223.375 186.312 223.359 185.922 223.422 185.516C223.516 185.109 223.5 184.719 223.375 184.344C223.031 184.344 222.719 184.25 222.438 184.062C222.188 183.875 221.922 183.828 221.641 183.922C221.578 183.828 221.516 183.75 221.453 183.688C221.391 183.594 221.281 183.547 221.125 183.547C220.875 183.547 220.625 183.5 220.375 183.406C220.125 183.281 219.875 183.219 219.625 183.219C219.375 183.562 218.984 183.766 218.453 183.828C217.953 183.859 217.531 183.891 217.188 183.922C216.938 183.766 216.672 183.641 216.391 183.547C216.141 183.422 215.859 183.344 215.547 183.312C215.234 183.562 215.031 183.766 214.938 183.922C214.875 184.047 214.594 184.109 214.094 184.109H213.578L213.109 184.016C212.953 184.234 212.75 184.359 212.5 184.391C212.25 184.422 212.016 184.406 211.797 184.344C211.703 184.438 211.609 184.516 211.516 184.578C211.422 184.641 211.312 184.703 211.188 184.766C210.75 184.703 210.391 184.766 210.109 184.953C209.859 185.141 209.547 185.234 209.172 185.234C209.016 185.484 208.891 185.734 208.797 185.984C208.734 186.203 208.656 186.438 208.562 186.688C208.656 186.812 208.734 186.906 208.797 186.969C208.859 187.031 209.016 187.203 209.266 187.484C209.266 187.641 209.281 187.766 209.312 187.859C209.375 187.922 209.391 188.031 209.359 188.188C209.516 188.25 209.656 188.344 209.781 188.469C209.906 188.562 210.047 188.609 210.203 188.609C210.484 188.609 210.734 188.531 210.953 188.375C211.203 188.188 211.516 188.156 211.891 188.281C212.234 188.031 212.641 187.906 213.109 187.906C213.234 188.031 213.344 188.203 213.438 188.422C213.562 188.609 213.625 188.781 213.625 188.938C213.625 189.062 213.609 189.188 213.578 189.312C213.547 189.406 213.531 189.516 213.531 189.641C213.531 189.984 213.562 190.312 213.625 190.625C213.719 190.938 213.766 191.266 213.766 191.609C213.766 191.766 213.703 191.938 213.578 192.125C213.484 192.281 213.469 192.391 213.531 192.453C213.5 192.672 213.516 192.844 213.578 192.969C213.672 193.062 213.719 193.203 213.719 193.391C213.469 193.547 213.406 193.703 213.531 193.859C213.688 193.984 213.688 194.234 213.531 194.609C213.625 194.609 213.672 194.656 213.672 194.75C213.703 194.844 213.75 194.922 213.812 194.984C213.75 195.047 213.703 195.125 213.672 195.219C213.672 195.312 213.625 195.375 213.531 195.406C213.656 195.562 213.75 195.781 213.812 196.062C213.906 196.344 213.953 196.641 213.953 196.953C213.953 197.234 213.938 197.531 213.906 197.844C213.875 198.125 213.812 198.359 213.719 198.547C214 198.828 214.062 199.109 213.906 199.391C213.781 199.641 213.719 199.922 213.719 200.234C213.719 200.672 213.781 201.094 213.906 201.5C214.031 201.906 213.938 202.312 213.625 202.719C213.875 203.312 213.984 204.031 213.953 204.875C213.953 205.688 214.047 206.422 214.234 207.078C214.109 207.328 214.047 207.531 214.047 207.688C214.172 207.844 214.234 208.016 214.234 208.203C214.266 208.391 214.281 208.594 214.281 208.812C214.281 209.031 214.297 209.234 214.328 209.422C214.359 209.609 214.438 209.75 214.562 209.844C214.469 210 214.391 210.172 214.328 210.359L214.141 210.828C214.234 210.891 214.281 210.984 214.281 211.109C214.312 211.203 214.328 211.297 214.328 211.391C214.328 211.734 214.266 211.906 214.141 211.906C214.016 211.875 213.953 211.953 213.953 212.141C213.953 212.234 214 212.312 214.094 212.375C214.188 212.406 214.203 212.5 214.141 212.656L214.422 212.938C214.516 213 214.594 213.109 214.656 213.266C214.469 213.484 214.344 213.641 214.281 213.734C214.219 213.828 214.141 213.891 214.047 213.922C213.953 213.953 213.828 213.953 213.672 213.922C213.547 213.891 213.328 213.844 213.016 213.781C212.859 213.938 212.625 214.016 212.312 214.016C212 214.016 211.734 214.047 211.516 214.109C211.422 214.359 211.266 214.531 211.047 214.625C210.828 214.688 210.641 214.812 210.484 215C210.422 215.406 210.469 215.719 210.625 215.938C210.781 216.156 210.797 216.422 210.672 216.734C210.828 217.016 211.031 217.234 211.281 217.391C211.531 217.547 211.812 217.672 212.125 217.766C212.375 217.578 212.578 217.469 212.734 217.438C213.141 217.531 213.547 217.531 213.953 217.438C214.391 217.344 214.828 217.281 215.266 217.25C215.766 217.188 216.312 217.172 216.906 217.203C217.531 217.203 218.062 217.109 218.5 216.922C218.594 217.047 218.703 217.141 218.828 217.203C218.953 217.266 219.078 217.344 219.203 217.438C219.266 217.312 219.391 217.234 219.578 217.203C219.766 217.141 219.906 217.156 220 217.25C220.156 217.094 220.438 217.094 220.844 217.25C221.031 217.156 221.156 217.109 221.219 217.109C221.312 217.109 221.453 217.156 221.641 217.25C221.734 217.031 221.891 216.938 222.109 216.969C222.328 217 222.516 216.984 222.672 216.922C222.766 216.891 222.844 216.859 222.906 216.828C223 216.766 223.094 216.734 223.188 216.734C223.344 216.734 223.484 216.703 223.609 216.641C223.766 216.578 223.953 216.578 224.172 216.641C224.359 216.516 224.562 216.438 224.781 216.406C225.031 216.344 225.234 216.25 225.391 216.125C225.422 216.094 225.484 216.016 225.578 215.891ZM244.797 187.719C244.891 187.812 245.031 187.844 245.219 187.812C245.25 187.906 245.266 188 245.266 188.094C245.266 188.188 245.422 188.203 245.734 188.141C245.828 188.141 245.953 188.188 246.109 188.281C246.266 188.375 246.422 188.422 246.578 188.422C246.672 188.422 246.75 188.406 246.812 188.375C246.906 188.312 247 188.281 247.094 188.281C247.25 188.281 247.438 188.328 247.656 188.422C247.875 188.516 248.016 188.641 248.078 188.797C248.234 188.859 248.328 188.875 248.359 188.844C248.391 188.812 248.469 188.766 248.594 188.703C248.719 188.859 248.812 188.984 248.875 189.078C248.969 189.141 249.125 189.156 249.344 189.125C249.562 189.5 249.938 189.828 250.469 190.109C250.625 190.141 250.75 190.141 250.844 190.109C250.969 190.047 251.109 190.016 251.266 190.016C251.453 190.016 251.625 190.062 251.781 190.156C251.938 190.219 252.109 190.25 252.297 190.25C252.547 190.25 252.766 190.203 252.953 190.109C253.172 189.984 253.391 189.875 253.609 189.781C253.641 189.531 253.672 189.297 253.703 189.078C253.734 188.859 253.781 188.625 253.844 188.375L253.375 187.531C253.219 187.219 253.094 186.891 253 186.547C252.906 186.547 252.812 186.578 252.719 186.641C252.625 186.672 252.531 186.688 252.438 186.688C252.406 186.688 252.328 186.672 252.203 186.641C252.078 186.578 251.938 186.516 251.781 186.453C251.656 186.359 251.531 186.281 251.406 186.219L251.125 186.078C251.062 185.828 250.938 185.703 250.75 185.703C250.562 185.672 250.438 185.547 250.375 185.328C250.219 185.359 250.062 185.344 249.906 185.281C249.75 185.219 249.594 185.203 249.438 185.234C249.312 185.141 249.094 185.047 248.781 184.953C248.5 184.859 248.188 184.766 247.844 184.672C247.531 184.578 247.219 184.5 246.906 184.438C246.594 184.375 246.359 184.344 246.203 184.344C246.078 184.25 245.984 184.141 245.922 184.016C245.859 183.891 245.75 183.797 245.594 183.734C245.438 183.672 245.266 183.656 245.078 183.688C244.922 183.719 244.766 183.688 244.609 183.594C244.391 183.469 244.109 183.406 243.766 183.406C243.422 183.375 243.047 183.375 242.641 183.406C242.266 183.406 241.891 183.438 241.516 183.5C241.141 183.531 240.828 183.547 240.578 183.547C240.453 183.547 240.328 183.531 240.203 183.5C240.078 183.438 239.953 183.406 239.828 183.406C239.578 183.406 239.344 183.484 239.125 183.641C238.938 183.766 238.578 183.828 238.047 183.828H237.625C237.531 183.797 237.312 183.891 236.969 184.109C236.844 184.141 236.734 184.203 236.641 184.297C236.578 184.391 236.5 184.469 236.406 184.531C236.25 184.469 236.031 184.5 235.75 184.625C235.469 184.719 235.203 184.75 234.953 184.719C234.609 184.906 234.344 185.141 234.156 185.422C234 185.672 233.844 185.969 233.688 186.312C233.531 186.562 233.359 186.797 233.172 187.016C232.984 187.234 232.859 187.5 232.797 187.812C232.547 187.969 232.359 188.172 232.234 188.422C232.109 188.672 231.891 188.828 231.578 188.891C231.547 189.047 231.438 189.266 231.25 189.547C231.062 189.828 230.891 189.984 230.734 190.016C230.766 190.172 230.766 190.328 230.734 190.484L230.641 190.953C230.391 191.297 230.25 191.672 230.219 192.078C230.219 192.453 230.078 192.812 229.797 193.156C230.047 193.344 230.125 193.609 230.031 193.953C229.969 194.266 229.906 194.547 229.844 194.797C230 194.891 230.094 195 230.125 195.125C230.188 195.219 230.266 195.344 230.359 195.5C230.359 196.062 230.625 196.562 231.156 197C231.125 197.125 231.125 197.234 231.156 197.328C231.219 197.422 231.25 197.531 231.25 197.656C231.562 197.781 231.766 197.906 231.859 198.031C232.016 198.375 232.234 198.688 232.516 198.969C232.797 199.219 233.031 199.5 233.219 199.812C233.375 199.781 233.469 199.797 233.5 199.859C233.531 199.922 233.609 199.938 233.734 199.906C233.766 199.969 233.844 200.078 233.969 200.234C234.125 200.359 234.281 200.5 234.438 200.656C234.594 200.781 234.734 200.891 234.859 200.984C235.016 201.078 235.281 201.094 235.656 201.031C235.781 201.156 235.922 201.234 236.078 201.266C236.266 201.297 236.438 201.312 236.594 201.312C236.875 201.312 237.062 201.375 237.156 201.5C237.25 201.594 237.375 201.641 237.531 201.641C237.938 201.609 238.234 201.656 238.422 201.781C238.641 201.875 238.891 201.922 239.172 201.922C239.266 201.922 239.359 201.906 239.453 201.875C239.547 201.844 239.641 201.828 239.734 201.828C239.953 201.828 240.156 201.859 240.344 201.922C240.531 201.984 240.734 202.016 240.953 202.016C241.078 202.016 241.203 202 241.328 201.969C241.453 201.938 241.594 201.922 241.75 201.922C241.844 201.922 241.938 201.938 242.031 201.969C242.125 202 242.234 202.016 242.359 202.016C242.516 202.016 242.672 201.984 242.828 201.922C242.984 201.828 243.141 201.781 243.297 201.781C243.734 201.781 244.156 201.891 244.562 202.109C245 202.328 245.438 202.469 245.875 202.531C245.938 202.625 245.984 202.703 246.016 202.766C246.078 202.828 246.125 202.922 246.156 203.047C246.312 203.047 246.453 203.016 246.578 202.953C246.734 202.859 246.844 202.812 246.906 202.812C247.156 203.125 247.438 203.266 247.75 203.234C248.062 203.203 248.391 203.297 248.734 203.516C248.766 203.547 248.844 203.609 248.969 203.703C249.094 203.797 249.234 203.891 249.391 203.984C249.578 204.078 249.734 204.172 249.859 204.266C250.016 204.328 250.125 204.375 250.188 204.406C250.25 204.688 250.344 204.891 250.469 205.016C250.625 205.109 250.688 205.328 250.656 205.672C250.781 205.828 250.906 206.062 251.031 206.375C251.188 206.656 251.312 206.969 251.406 207.312C251.531 207.656 251.625 207.984 251.688 208.297C251.75 208.609 251.781 208.859 251.781 209.047C251.781 209.109 251.766 209.188 251.734 209.281C251.703 209.344 251.719 209.5 251.781 209.75C251.781 209.906 251.766 210.062 251.734 210.219C251.703 210.344 251.719 210.484 251.781 210.641C251.625 210.891 251.5 211.141 251.406 211.391C251.344 211.641 251.156 211.812 250.844 211.906C250.906 212.062 250.906 212.219 250.844 212.375C250.656 212.344 250.547 212.391 250.516 212.516C250.484 212.609 250.391 212.625 250.234 212.562C250.172 212.719 250.094 212.906 250 213.125C249.938 213.312 249.812 213.438 249.625 213.5C249.562 213.562 249.469 213.594 249.344 213.594H249.062C248.719 213.844 248.344 214.047 247.938 214.203C247.531 214.328 247.188 214.562 246.906 214.906H246.391C246.328 215.094 246.141 215.234 245.828 215.328C245.672 215.391 245.375 215.484 244.938 215.609C244.531 215.734 244.266 215.797 244.141 215.797C243.953 215.797 243.75 215.781 243.531 215.75C243.344 215.719 243.141 215.703 242.922 215.703C242.672 215.703 242.406 215.719 242.125 215.75C241.844 215.781 241.578 215.797 241.328 215.797C240.984 215.797 240.688 215.75 240.438 215.656C240.219 215.531 239.953 215.438 239.641 215.375C239.578 215.531 239.422 215.609 239.172 215.609C239.109 215.609 239.047 215.562 238.984 215.469C238.922 215.344 238.812 215.281 238.656 215.281C238.406 215.281 238.188 215.266 238 215.234C237.844 215.172 237.641 215.094 237.391 215C237.234 215.094 237.078 215.125 236.922 215.094C236.797 215.031 236.641 215 236.453 215C236.234 214.781 235.969 214.625 235.656 214.531C235.375 214.438 235.125 214.281 234.906 214.062C234.844 213.906 234.797 213.797 234.766 213.734C234.734 213.641 234.719 213.516 234.719 213.359L234.344 213.172C234.219 213.109 234.109 213.047 234.016 212.984C234.047 212.641 233.969 212.438 233.781 212.375C233.594 212.312 233.469 212.172 233.406 211.953C233.312 211.609 233.188 211.344 233.031 211.156C232.875 210.969 232.797 210.688 232.797 210.312C232.547 210.188 232.328 210.016 232.141 209.797C231.984 209.578 231.812 209.359 231.625 209.141C231.562 209.328 231.469 209.422 231.344 209.422C231.219 209.422 231.078 209.406 230.922 209.375C230.797 209.344 230.656 209.344 230.5 209.375C230.375 209.375 230.188 209.391 229.938 209.422C229.781 209.766 229.594 210.109 229.375 210.453C229.156 210.797 229.047 211.156 229.047 211.531C229.047 211.812 229.125 212.062 229.281 212.281L229.75 212.938V213.734C229.938 213.984 230.047 214.172 230.078 214.297C230.141 214.391 230.156 214.578 230.125 214.859L230.594 215.328C230.75 215.453 230.922 215.547 231.109 215.609L231.391 216.078C231.516 216.234 231.656 216.375 231.812 216.5L232.094 216.688C232.188 216.75 232.25 216.859 232.281 217.016C232.656 217.172 232.938 217.422 233.125 217.766C233.625 217.828 234.094 217.969 234.531 218.188C234.969 218.438 235.453 218.562 235.984 218.562C236.359 218.562 236.609 218.609 236.734 218.703C236.891 218.797 237.141 218.891 237.484 218.984C237.578 219.016 237.672 219.031 237.766 219.031C237.891 219.031 238 219.047 238.094 219.078C238.344 219.141 238.562 219.219 238.75 219.312C238.969 219.406 239.203 219.5 239.453 219.594C239.797 219.375 240.125 219.328 240.438 219.453C240.75 219.609 241.078 219.688 241.422 219.688C241.609 219.688 241.781 219.641 241.938 219.547C242.125 219.484 242.312 219.453 242.5 219.453C242.75 219.453 242.875 219.5 242.875 219.594C242.906 219.719 243.016 219.781 243.203 219.781C243.359 219.781 243.688 219.703 244.188 219.547C244.688 219.422 245.016 219.328 245.172 219.266C245.422 219.391 245.703 219.391 246.016 219.266C246.359 219.172 246.688 219.141 247 219.172C247.469 218.797 248 218.484 248.594 218.234C248.656 218.047 248.734 217.906 248.828 217.812C248.953 217.719 249.094 217.594 249.25 217.438H249.812C249.938 217.375 250.031 217.297 250.094 217.203C250.156 217.078 250.266 217 250.422 216.969C251.016 216.812 251.438 216.594 251.688 216.312C251.969 216 252.391 215.672 252.953 215.328C253.016 215.266 253.047 215.219 253.047 215.188C253.078 215.125 253.188 215.094 253.375 215.094C253.5 214.781 253.578 214.547 253.609 214.391C253.703 214.328 253.812 214.297 253.938 214.297C254.062 214.266 254.125 214.172 254.125 214.016C254.125 213.734 254.203 213.5 254.359 213.312C254.516 213.094 254.578 212.828 254.547 212.516C254.703 212.484 254.781 212.438 254.781 212.375C254.812 212.281 254.906 212.219 255.062 212.188C255.031 211.938 255.047 211.734 255.109 211.578C255.203 211.422 255.359 211.266 255.578 211.109C255.516 210.859 255.531 210.703 255.625 210.641C255.719 210.547 255.766 210.391 255.766 210.172C255.766 210.078 255.719 209.984 255.625 209.891C255.562 209.797 255.531 209.719 255.531 209.656L255.625 209.375C255.656 209.281 255.672 209.172 255.672 209.047C255.672 208.766 255.609 208.484 255.484 208.203L255.203 207.359C255.109 207.078 255.031 206.797 254.969 206.516C254.938 206.203 254.969 205.875 255.062 205.531C254.906 205.375 254.797 205.203 254.734 205.016C254.672 204.828 254.578 204.656 254.453 204.5C254.453 204.156 254.344 203.859 254.125 203.609C253.938 203.359 253.875 203.109 253.938 202.859C253.688 202.734 253.453 202.422 253.234 201.922C252.859 201.797 252.609 201.547 252.484 201.172C252.328 201.203 252.219 201.203 252.156 201.172L252.062 201.078L251.969 200.891C251.938 200.828 251.859 200.797 251.734 200.797C251.578 200.641 251.391 200.547 251.172 200.516C250.984 200.484 250.859 200.344 250.797 200.094H250.047C249.797 199.781 249.5 199.578 249.156 199.484C248.812 199.391 248.469 199.312 248.125 199.25C248 199.156 247.891 199.047 247.797 198.922L247.516 198.547C247.234 198.641 246.984 198.672 246.766 198.641C246.578 198.578 246.391 198.5 246.203 198.406C246.016 198.312 245.812 198.234 245.594 198.172C245.406 198.078 245.203 198.062 244.984 198.125C244.828 198 244.672 197.891 244.516 197.797C244.391 197.672 244.234 197.578 244.047 197.516C243.859 197.672 243.547 197.781 243.109 197.844C242.703 197.906 242.25 197.953 241.75 197.984C241.281 198.016 240.812 198.031 240.344 198.031H239.266C239.016 197.938 238.812 197.766 238.656 197.516C238.406 197.609 238.188 197.656 238 197.656C237.844 197.625 237.688 197.578 237.531 197.516C237.375 197.453 237.219 197.375 237.062 197.281C236.906 197.188 236.719 197.109 236.5 197.047L236.312 196.766C236.281 196.672 236.234 196.562 236.172 196.438C235.922 196.375 235.75 196.281 235.656 196.156C235.594 196 235.391 195.812 235.047 195.594C235.047 195.344 234.953 195.188 234.766 195.125C234.484 195 234.375 194.922 234.438 194.891C234.5 194.828 234.422 194.688 234.203 194.469C234.203 194.281 234.156 194.125 234.062 194C233.969 193.844 233.922 193.672 233.922 193.484C233.922 193.234 233.953 193 234.016 192.781C234.078 192.562 234.234 192.25 234.484 191.844C234.547 191.375 234.672 191.047 234.859 190.859C235.078 190.641 235.453 190.328 235.984 189.922C236.047 189.703 236.109 189.516 236.172 189.359C236.266 189.172 236.344 188.969 236.406 188.75C236.438 188.719 236.547 188.656 236.734 188.562L237.297 188.188C237.484 188.062 237.656 187.953 237.812 187.859C238 187.766 238.109 187.719 238.141 187.719C238.359 187.656 238.625 187.641 238.938 187.672C239.25 187.703 239.5 187.656 239.688 187.531C239.75 187.5 239.797 187.469 239.828 187.438C239.859 187.406 240.047 187.422 240.391 187.484C240.484 187.484 240.625 187.453 240.812 187.391C241 187.297 241.234 187.25 241.516 187.25H241.984C242.141 187.25 242.297 187.234 242.453 187.203C242.578 187.234 242.688 187.297 242.781 187.391C242.875 187.484 243 187.531 243.156 187.531C243.25 187.531 243.344 187.516 243.438 187.484C243.531 187.453 243.625 187.469 243.719 187.531C243.906 187.656 244.156 187.672 244.469 187.578C244.594 187.578 244.703 187.625 244.797 187.719Z" fill="#1A4DCF"/>
</svg>
